M48
; DRILL file {KiCad (6.0.4)} date Sun May 29 02:27:22 2022
; FORMAT={-:-/ absolute / inch / decimal}
; #@! TF.CreationDate,2022-05-29T02:27:22+01:00
; #@! TF.GenerationSoftware,Kicad,Pcbnew,(6.0.4)
; #@! TF.FileFunction,Plated,1,2,PTH
FMAT,2
INCH
; #@! TA.AperFunction,Plated,PTH,ViaDrill
T1C0.0118
; #@! TA.AperFunction,Plated,PTH,ViaDrill
T2C0.0157
; #@! TA.AperFunction,Plated,PTH,ComponentDrill
T3C0.0394
%
G90
G05
T1
X5.098Y-3.972
X5.697Y-3.803
X5.978Y-4.332
X6.063Y-3.807
X6.459Y-3.835
T2
X5.249Y-3.779
X5.2584Y-4.181
X5.262Y-4.441
X5.312Y-4.324
X5.361Y-4.004
X5.3875Y-3.913
X5.457Y-3.861
X5.4576Y-4.112
X5.51Y-3.805
X5.534Y-3.955
X5.536Y-4.192
X5.6524Y-4.0159
X5.6524Y-4.162
X5.6524Y-4.212
X5.655Y-3.909
X5.7191Y-3.973
X5.792Y-3.799
X5.796Y-4.032
X5.8736Y-4.007
X5.9302Y-4.0798
T3
X5.5802Y-3.678
X5.6802Y-3.678
X5.7802Y-3.678
X5.8802Y-3.678
X5.9802Y-3.678
T0
M30
