%TF.GenerationSoftware,KiCad,Pcbnew,(6.0.4)*%
%TF.CreationDate,2022-05-29T02:27:13+01:00*%
%TF.ProjectId,16-LED Board,31362d4c-4544-4204-926f-6172642e6b69,V1.0*%
%TF.SameCoordinates,Original*%
%TF.FileFunction,Copper,L2,Bot*%
%TF.FilePolarity,Positive*%
%FSLAX46Y46*%
G04 Gerber Fmt 4.6, Leading zero omitted, Abs format (unit mm)*
G04 Created by KiCad (PCBNEW (6.0.4)) date 2022-05-29 02:27:13*
%MOMM*%
%LPD*%
G01*
G04 APERTURE LIST*
%TA.AperFunction,ComponentPad*%
%ADD10R,1.700000X1.700000*%
%TD*%
%TA.AperFunction,ComponentPad*%
%ADD11O,1.700000X1.700000*%
%TD*%
%TA.AperFunction,ViaPad*%
%ADD12C,0.800000*%
%TD*%
%TA.AperFunction,ViaPad*%
%ADD13C,0.600000*%
%TD*%
%TA.AperFunction,Conductor*%
%ADD14C,0.250000*%
%TD*%
%TA.AperFunction,Conductor*%
%ADD15C,0.380000*%
%TD*%
G04 APERTURE END LIST*
D10*
%TO.P,J1,1,Pin_1*%
%TO.N,VCC*%
X141737000Y-93421200D03*
D11*
%TO.P,J1,2,Pin_2*%
%TO.N,GND*%
X144277000Y-93421200D03*
%TO.P,J1,3,Pin_3*%
%TO.N,/LATCH*%
X146817000Y-93421200D03*
%TO.P,J1,4,Pin_4*%
%TO.N,/CLOCK*%
X149357000Y-93421200D03*
%TO.P,J1,5,Pin_5*%
%TO.N,/DATA*%
X151897000Y-93421200D03*
%TD*%
D12*
%TO.N,/DATA_S*%
X138607800Y-98069400D03*
X147218400Y-102412800D03*
%TO.N,/LED15*%
X140563600Y-100457000D03*
X133324600Y-95986600D03*
%TO.N,/LED14*%
X136169400Y-101701600D03*
X143572000Y-102004780D03*
%TO.N,/CLOCK*%
X136843100Y-99390200D03*
%TO.N,/LATCH*%
X145265747Y-100914200D03*
%TO.N,/LED12*%
X140614400Y-106476800D03*
X133562600Y-106197400D03*
%TO.N,/LED10*%
X143572000Y-106984800D03*
X133654800Y-112801400D03*
%TO.N,/LED11*%
X143572000Y-105714800D03*
X134924800Y-109829600D03*
D13*
%TO.N,GND*%
X129489200Y-100888800D03*
D12*
%TO.N,/LED16*%
X143637000Y-99288600D03*
X139954000Y-96647000D03*
%TO.N,/DATA*%
X138622000Y-104444800D03*
X150627138Y-103628006D03*
%TO.N,/LATCH*%
X149188400Y-101777800D03*
X147116800Y-96494600D03*
D13*
%TO.N,GND*%
X154000200Y-96697800D03*
X151841200Y-110032800D03*
X164058600Y-97409000D03*
X144703800Y-96596200D03*
%TD*%
D14*
%TO.N,/DATA_S*%
X145739733Y-102412800D02*
X147218400Y-102412800D01*
X141287394Y-100013111D02*
X143764000Y-100013111D01*
X143764000Y-100013111D02*
X143764000Y-100437067D01*
X139343683Y-98069400D02*
X141287394Y-100013111D01*
X138607800Y-98069400D02*
X139343683Y-98069400D01*
X143764000Y-100437067D02*
X145739733Y-102412800D01*
%TO.N,/LED14*%
X143268820Y-101701600D02*
X143572000Y-102004780D01*
X136169400Y-101701600D02*
X143268820Y-101701600D01*
%TO.N,/LED15*%
X136398000Y-100457000D02*
X140563600Y-100457000D01*
X135813800Y-99872800D02*
X136398000Y-100457000D01*
X135813800Y-98475800D02*
X135813800Y-99872800D01*
X133324600Y-95986600D02*
X135813800Y-98475800D01*
%TO.N,/CLOCK*%
X148132489Y-92196689D02*
X149357000Y-93421200D01*
X136843100Y-95866078D02*
X140512489Y-92196689D01*
X140512489Y-92196689D02*
X148132489Y-92196689D01*
X136843100Y-99390200D02*
X136843100Y-95866078D01*
%TO.N,/LATCH*%
X146473747Y-99706200D02*
X147116800Y-99706200D01*
X145265747Y-100914200D02*
X146473747Y-99706200D01*
%TO.N,/LED12*%
X140614400Y-106476800D02*
X133842000Y-106476800D01*
X133842000Y-106476800D02*
X133562600Y-106197400D01*
%TO.N,/LED10*%
X143572000Y-108904000D02*
X143572000Y-106984800D01*
X133654800Y-112801400D02*
X139674600Y-112801400D01*
X139674600Y-112801400D02*
X143572000Y-108904000D01*
%TO.N,/LED11*%
X142341600Y-105714800D02*
X143572000Y-105714800D01*
X141452600Y-106603800D02*
X142341600Y-105714800D01*
X141452600Y-107619800D02*
X141452600Y-106603800D01*
X139242800Y-109829600D02*
X141452600Y-107619800D01*
X134924800Y-109829600D02*
X139242800Y-109829600D01*
D15*
%TO.N,GND*%
X153588800Y-95229600D02*
X145968800Y-95229600D01*
X145968800Y-95229600D02*
X144277000Y-95229600D01*
D14*
%TO.N,/LED16*%
X141274800Y-99364800D02*
X143560800Y-99364800D01*
X139954000Y-96647000D02*
X139954000Y-98044000D01*
X139954000Y-98044000D02*
X141274800Y-99364800D01*
X143560800Y-99364800D02*
X143637000Y-99288600D01*
%TO.N,/DATA*%
X150627138Y-103628006D02*
X149810344Y-104444800D01*
X149810344Y-104444800D02*
X138622000Y-104444800D01*
%TO.N,/LATCH*%
X147116800Y-99706200D02*
X149188400Y-101777800D01*
X147116800Y-96494600D02*
X147116800Y-99706200D01*
D15*
%TO.N,GND*%
X153416000Y-96113600D02*
X152704800Y-96113600D01*
X151841200Y-96977200D02*
X152704800Y-96113600D01*
X152704800Y-96113600D02*
X153588800Y-95229600D01*
X154000200Y-96697800D02*
X153416000Y-96113600D01*
X151841200Y-110032800D02*
X151841200Y-96977200D01*
X154538600Y-95229600D02*
X153588800Y-95229600D01*
X156718000Y-97409000D02*
X154538600Y-95229600D01*
X164058600Y-97409000D02*
X156718000Y-97409000D01*
X144277000Y-93421200D02*
X144277000Y-95229600D01*
X144277000Y-95229600D02*
X144277000Y-96169400D01*
X144277000Y-96169400D02*
X144703800Y-96596200D01*
%TD*%
%TA.AperFunction,Conductor*%
%TO.N,GND*%
G36*
X169393928Y-89205273D02*
G01*
X169413240Y-89206773D01*
X169428247Y-89209109D01*
X169428249Y-89209109D01*
X169437124Y-89210491D01*
X169454323Y-89208242D01*
X169478262Y-89207409D01*
X169705155Y-89221133D01*
X169720260Y-89222967D01*
X169970701Y-89268862D01*
X169985474Y-89272503D01*
X170228567Y-89348254D01*
X170242785Y-89353646D01*
X170474965Y-89458142D01*
X170488437Y-89465212D01*
X170678611Y-89580177D01*
X170706330Y-89596934D01*
X170718852Y-89605577D01*
X170919286Y-89762607D01*
X170930674Y-89772697D01*
X171110703Y-89952726D01*
X171120793Y-89964114D01*
X171262623Y-90145146D01*
X171277823Y-90164548D01*
X171286466Y-90177070D01*
X171418187Y-90394962D01*
X171425257Y-90408433D01*
X171521450Y-90622164D01*
X171529752Y-90640611D01*
X171535148Y-90654838D01*
X171610897Y-90897926D01*
X171614538Y-90912699D01*
X171660433Y-91163140D01*
X171662267Y-91178244D01*
X171674238Y-91376140D01*
X171675554Y-91397904D01*
X171674292Y-91424707D01*
X171674290Y-91424853D01*
X171672909Y-91433724D01*
X171674073Y-91442626D01*
X171674073Y-91442631D01*
X171677062Y-91465486D01*
X171678126Y-91481742D01*
X171684143Y-100994442D01*
X171692159Y-113667509D01*
X171694134Y-116790755D01*
X171692633Y-116810223D01*
X171690355Y-116824848D01*
X171690355Y-116824856D01*
X171688974Y-116833724D01*
X171691223Y-116850919D01*
X171692056Y-116874862D01*
X171678332Y-117101753D01*
X171676498Y-117116858D01*
X171630604Y-117367294D01*
X171626964Y-117382062D01*
X171551212Y-117625158D01*
X171545816Y-117639384D01*
X171441323Y-117871556D01*
X171434252Y-117885029D01*
X171302531Y-118102918D01*
X171293888Y-118115440D01*
X171136862Y-118315868D01*
X171126772Y-118327257D01*
X170946737Y-118507290D01*
X170935348Y-118517380D01*
X170734919Y-118674403D01*
X170722397Y-118683046D01*
X170504505Y-118814764D01*
X170491032Y-118821835D01*
X170258850Y-118926329D01*
X170244623Y-118931724D01*
X170163032Y-118957148D01*
X170001540Y-119007469D01*
X169986773Y-119011108D01*
X169752461Y-119054045D01*
X169736331Y-119057001D01*
X169721226Y-119058835D01*
X169704360Y-119059855D01*
X169501403Y-119072129D01*
X169475263Y-119070898D01*
X169474618Y-119070890D01*
X169465748Y-119069509D01*
X169456845Y-119070673D01*
X169456842Y-119070673D01*
X169433997Y-119073660D01*
X169417737Y-119074724D01*
X149189503Y-119086129D01*
X124458460Y-119100072D01*
X124439006Y-119098572D01*
X124424352Y-119096291D01*
X124415476Y-119094909D01*
X124398277Y-119097158D01*
X124374338Y-119097991D01*
X124147445Y-119084267D01*
X124132340Y-119082433D01*
X123881899Y-119036538D01*
X123867126Y-119032897D01*
X123797206Y-119011109D01*
X123624033Y-118957146D01*
X123609815Y-118951754D01*
X123377633Y-118847257D01*
X123364162Y-118840187D01*
X123322108Y-118814764D01*
X123146269Y-118708465D01*
X123133748Y-118699823D01*
X122933314Y-118542793D01*
X122921926Y-118532703D01*
X122741897Y-118352674D01*
X122731807Y-118341286D01*
X122574777Y-118140852D01*
X122566134Y-118128330D01*
X122434413Y-117910438D01*
X122427342Y-117896965D01*
X122415930Y-117871609D01*
X122322846Y-117664785D01*
X122317452Y-117650562D01*
X122241703Y-117407474D01*
X122238062Y-117392701D01*
X122192167Y-117142260D01*
X122190333Y-117127156D01*
X122188018Y-117088893D01*
X122177268Y-116911163D01*
X122178521Y-116887616D01*
X122178334Y-116887599D01*
X122178769Y-116882750D01*
X122179576Y-116877952D01*
X122179729Y-116865400D01*
X122175818Y-116838091D01*
X122174545Y-116820103D01*
X122185147Y-106197400D01*
X132649096Y-106197400D01*
X132649786Y-106203965D01*
X132667248Y-106370103D01*
X132669058Y-106387328D01*
X132728073Y-106568956D01*
X132731376Y-106574678D01*
X132731377Y-106574679D01*
X132753643Y-106613244D01*
X132823560Y-106734344D01*
X132827978Y-106739251D01*
X132827979Y-106739252D01*
X132883969Y-106801435D01*
X132951347Y-106876266D01*
X133050443Y-106948264D01*
X133091695Y-106978235D01*
X133105848Y-106988518D01*
X133111876Y-106991202D01*
X133111878Y-106991203D01*
X133112242Y-106991365D01*
X133280312Y-107066194D01*
X133373712Y-107086047D01*
X133460656Y-107104528D01*
X133460661Y-107104528D01*
X133467113Y-107105900D01*
X133658087Y-107105900D01*
X133676638Y-107101957D01*
X133734168Y-107103162D01*
X133761970Y-107110300D01*
X133782224Y-107110300D01*
X133801934Y-107111851D01*
X133821943Y-107115020D01*
X133829835Y-107114274D01*
X133865961Y-107110859D01*
X133877819Y-107110300D01*
X139906200Y-107110300D01*
X139974321Y-107130302D01*
X139993547Y-107146643D01*
X139993820Y-107146340D01*
X139998732Y-107150763D01*
X140003147Y-107155666D01*
X140157648Y-107267918D01*
X140163676Y-107270602D01*
X140163678Y-107270603D01*
X140326081Y-107342909D01*
X140332112Y-107345594D01*
X140433074Y-107367054D01*
X140516474Y-107384782D01*
X140578948Y-107418511D01*
X140613269Y-107480660D01*
X140608541Y-107551499D01*
X140579372Y-107597124D01*
X139017300Y-109159195D01*
X138954988Y-109193221D01*
X138928205Y-109196100D01*
X135633000Y-109196100D01*
X135564879Y-109176098D01*
X135545653Y-109159757D01*
X135545380Y-109160060D01*
X135540468Y-109155637D01*
X135536053Y-109150734D01*
X135381552Y-109038482D01*
X135375524Y-109035798D01*
X135375522Y-109035797D01*
X135213119Y-108963491D01*
X135213118Y-108963491D01*
X135207088Y-108960806D01*
X135113688Y-108940953D01*
X135026744Y-108922472D01*
X135026739Y-108922472D01*
X135020287Y-108921100D01*
X134829313Y-108921100D01*
X134822861Y-108922472D01*
X134822856Y-108922472D01*
X134735912Y-108940953D01*
X134642512Y-108960806D01*
X134636482Y-108963491D01*
X134636481Y-108963491D01*
X134474078Y-109035797D01*
X134474076Y-109035798D01*
X134468048Y-109038482D01*
X134313547Y-109150734D01*
X134309126Y-109155644D01*
X134309125Y-109155645D01*
X134213754Y-109261566D01*
X134185760Y-109292656D01*
X134090273Y-109458044D01*
X134031258Y-109639672D01*
X134011296Y-109829600D01*
X134031258Y-110019528D01*
X134090273Y-110201156D01*
X134185760Y-110366544D01*
X134190178Y-110371451D01*
X134190179Y-110371452D01*
X134272252Y-110462603D01*
X134313547Y-110508466D01*
X134468048Y-110620718D01*
X134474076Y-110623402D01*
X134474078Y-110623403D01*
X134636481Y-110695709D01*
X134642512Y-110698394D01*
X134735912Y-110718247D01*
X134822856Y-110736728D01*
X134822861Y-110736728D01*
X134829313Y-110738100D01*
X135020287Y-110738100D01*
X135026739Y-110736728D01*
X135026744Y-110736728D01*
X135113688Y-110718247D01*
X135207088Y-110698394D01*
X135213119Y-110695709D01*
X135375522Y-110623403D01*
X135375524Y-110623402D01*
X135381552Y-110620718D01*
X135536053Y-110508466D01*
X135540468Y-110503563D01*
X135545380Y-110499140D01*
X135546505Y-110500389D01*
X135599814Y-110467549D01*
X135633000Y-110463100D01*
X139164033Y-110463100D01*
X139175216Y-110463627D01*
X139182709Y-110465302D01*
X139190635Y-110465053D01*
X139190636Y-110465053D01*
X139250786Y-110463162D01*
X139254745Y-110463100D01*
X139282656Y-110463100D01*
X139286591Y-110462603D01*
X139286656Y-110462595D01*
X139298493Y-110461662D01*
X139330751Y-110460648D01*
X139334770Y-110460522D01*
X139342689Y-110460273D01*
X139362143Y-110454621D01*
X139381500Y-110450613D01*
X139393730Y-110449068D01*
X139393731Y-110449068D01*
X139401597Y-110448074D01*
X139408968Y-110445155D01*
X139408970Y-110445155D01*
X139442712Y-110431796D01*
X139453942Y-110427951D01*
X139488783Y-110417829D01*
X139488784Y-110417829D01*
X139496393Y-110415618D01*
X139503212Y-110411585D01*
X139503217Y-110411583D01*
X139513828Y-110405307D01*
X139531576Y-110396612D01*
X139550417Y-110389152D01*
X139586187Y-110363164D01*
X139596107Y-110356648D01*
X139627335Y-110338180D01*
X139627338Y-110338178D01*
X139634162Y-110334142D01*
X139648483Y-110319821D01*
X139663517Y-110306980D01*
X139673494Y-110299731D01*
X139679907Y-110295072D01*
X139708098Y-110260995D01*
X139716088Y-110252216D01*
X141844853Y-108123452D01*
X141853139Y-108115912D01*
X141859618Y-108111800D01*
X141906244Y-108062148D01*
X141908998Y-108059307D01*
X141928735Y-108039570D01*
X141931215Y-108036373D01*
X141938920Y-108027351D01*
X141963759Y-108000900D01*
X141969186Y-107995121D01*
X141973005Y-107988175D01*
X141973007Y-107988172D01*
X141978948Y-107977366D01*
X141989799Y-107960847D01*
X141997358Y-107951101D01*
X142002214Y-107944841D01*
X142005359Y-107937572D01*
X142005362Y-107937568D01*
X142019774Y-107904263D01*
X142024991Y-107893613D01*
X142046295Y-107854860D01*
X142051333Y-107835237D01*
X142057737Y-107816534D01*
X142062633Y-107805220D01*
X142062633Y-107805219D01*
X142065781Y-107797945D01*
X142067020Y-107790122D01*
X142067023Y-107790112D01*
X142072699Y-107754276D01*
X142075105Y-107742656D01*
X142084128Y-107707511D01*
X142084128Y-107707510D01*
X142086100Y-107699830D01*
X142086100Y-107679576D01*
X142087651Y-107659865D01*
X142089580Y-107647686D01*
X142090820Y-107639857D01*
X142086659Y-107595838D01*
X142086100Y-107583981D01*
X142086100Y-106918395D01*
X142106102Y-106850274D01*
X142123005Y-106829299D01*
X142567101Y-106385204D01*
X142629413Y-106351179D01*
X142656196Y-106348300D01*
X142672200Y-106348300D01*
X142740321Y-106368302D01*
X142786814Y-106421958D01*
X142796918Y-106492232D01*
X142781319Y-106537300D01*
X142740777Y-106607521D01*
X142737473Y-106613244D01*
X142678458Y-106794872D01*
X142677768Y-106801433D01*
X142677768Y-106801435D01*
X142672635Y-106850274D01*
X142658496Y-106984800D01*
X142659186Y-106991365D01*
X142676455Y-107155666D01*
X142678458Y-107174728D01*
X142737473Y-107356356D01*
X142832960Y-107521744D01*
X142906137Y-107603015D01*
X142936853Y-107667021D01*
X142938500Y-107687324D01*
X142938500Y-108589406D01*
X142918498Y-108657527D01*
X142901595Y-108678501D01*
X139449100Y-112130995D01*
X139386788Y-112165021D01*
X139360005Y-112167900D01*
X134363000Y-112167900D01*
X134294879Y-112147898D01*
X134275653Y-112131557D01*
X134275380Y-112131860D01*
X134270468Y-112127437D01*
X134266053Y-112122534D01*
X134111552Y-112010282D01*
X134105524Y-112007598D01*
X134105522Y-112007597D01*
X133943119Y-111935291D01*
X133943118Y-111935291D01*
X133937088Y-111932606D01*
X133843688Y-111912753D01*
X133756744Y-111894272D01*
X133756739Y-111894272D01*
X133750287Y-111892900D01*
X133559313Y-111892900D01*
X133552861Y-111894272D01*
X133552856Y-111894272D01*
X133465912Y-111912753D01*
X133372512Y-111932606D01*
X133366482Y-111935291D01*
X133366481Y-111935291D01*
X133204078Y-112007597D01*
X133204076Y-112007598D01*
X133198048Y-112010282D01*
X133043547Y-112122534D01*
X133039126Y-112127444D01*
X133039125Y-112127445D01*
X133005292Y-112165021D01*
X132915760Y-112264456D01*
X132820273Y-112429844D01*
X132761258Y-112611472D01*
X132741296Y-112801400D01*
X132761258Y-112991328D01*
X132820273Y-113172956D01*
X132915760Y-113338344D01*
X132920178Y-113343251D01*
X132920179Y-113343252D01*
X133002252Y-113434403D01*
X133043547Y-113480266D01*
X133198048Y-113592518D01*
X133204076Y-113595202D01*
X133204078Y-113595203D01*
X133366481Y-113667509D01*
X133372512Y-113670194D01*
X133465912Y-113690047D01*
X133552856Y-113708528D01*
X133552861Y-113708528D01*
X133559313Y-113709900D01*
X133750287Y-113709900D01*
X133756739Y-113708528D01*
X133756744Y-113708528D01*
X133843688Y-113690047D01*
X133937088Y-113670194D01*
X133943119Y-113667509D01*
X134105522Y-113595203D01*
X134105524Y-113595202D01*
X134111552Y-113592518D01*
X134266053Y-113480266D01*
X134270468Y-113475363D01*
X134275380Y-113470940D01*
X134276505Y-113472189D01*
X134329814Y-113439349D01*
X134363000Y-113434900D01*
X139595833Y-113434900D01*
X139607016Y-113435427D01*
X139614509Y-113437102D01*
X139622435Y-113436853D01*
X139622436Y-113436853D01*
X139682586Y-113434962D01*
X139686545Y-113434900D01*
X139714456Y-113434900D01*
X139718391Y-113434403D01*
X139718456Y-113434395D01*
X139730293Y-113433462D01*
X139762551Y-113432448D01*
X139766570Y-113432322D01*
X139774489Y-113432073D01*
X139793943Y-113426421D01*
X139813300Y-113422413D01*
X139825530Y-113420868D01*
X139825531Y-113420868D01*
X139833397Y-113419874D01*
X139840768Y-113416955D01*
X139840770Y-113416955D01*
X139874512Y-113403596D01*
X139885742Y-113399751D01*
X139920583Y-113389629D01*
X139920584Y-113389629D01*
X139928193Y-113387418D01*
X139935012Y-113383385D01*
X139935017Y-113383383D01*
X139945628Y-113377107D01*
X139963376Y-113368412D01*
X139982217Y-113360952D01*
X140017987Y-113334964D01*
X140027907Y-113328448D01*
X140059135Y-113309980D01*
X140059138Y-113309978D01*
X140065962Y-113305942D01*
X140080283Y-113291621D01*
X140095317Y-113278780D01*
X140105294Y-113271531D01*
X140111707Y-113266872D01*
X140139898Y-113232795D01*
X140147888Y-113224016D01*
X143964253Y-109407652D01*
X143972539Y-109400112D01*
X143979018Y-109396000D01*
X144025644Y-109346348D01*
X144028398Y-109343507D01*
X144048135Y-109323770D01*
X144050615Y-109320573D01*
X144058320Y-109311551D01*
X144070694Y-109298374D01*
X144088586Y-109279321D01*
X144092405Y-109272375D01*
X144092407Y-109272372D01*
X144098348Y-109261566D01*
X144109199Y-109245047D01*
X144116758Y-109235301D01*
X144121614Y-109229041D01*
X144124759Y-109221772D01*
X144124762Y-109221768D01*
X144139174Y-109188463D01*
X144144391Y-109177813D01*
X144165695Y-109139060D01*
X144170733Y-109119437D01*
X144177137Y-109100734D01*
X144182033Y-109089420D01*
X144182033Y-109089419D01*
X144185181Y-109082145D01*
X144186420Y-109074322D01*
X144186423Y-109074312D01*
X144192099Y-109038476D01*
X144194505Y-109026856D01*
X144203528Y-108991711D01*
X144203528Y-108991710D01*
X144205500Y-108984030D01*
X144205500Y-108963776D01*
X144207051Y-108944065D01*
X144208980Y-108931886D01*
X144210220Y-108924057D01*
X144206059Y-108880038D01*
X144205500Y-108868181D01*
X144205500Y-107687324D01*
X144225502Y-107619203D01*
X144237858Y-107603021D01*
X144311040Y-107521744D01*
X144406527Y-107356356D01*
X144465542Y-107174728D01*
X144467546Y-107155666D01*
X144484814Y-106991365D01*
X144485504Y-106984800D01*
X144471365Y-106850274D01*
X144466232Y-106801435D01*
X144466232Y-106801433D01*
X144465542Y-106794872D01*
X144406527Y-106613244D01*
X144384262Y-106574679D01*
X144362681Y-106537300D01*
X144311040Y-106447856D01*
X144298662Y-106434109D01*
X144267946Y-106370103D01*
X144276710Y-106299650D01*
X144298661Y-106265493D01*
X144311040Y-106251744D01*
X144406527Y-106086356D01*
X144465542Y-105904728D01*
X144473173Y-105832129D01*
X144484814Y-105721365D01*
X144485504Y-105714800D01*
X144479792Y-105660456D01*
X144466232Y-105531435D01*
X144466232Y-105531433D01*
X144465542Y-105524872D01*
X144406527Y-105343244D01*
X144389409Y-105313594D01*
X144362681Y-105267300D01*
X144345943Y-105198304D01*
X144369164Y-105131213D01*
X144424971Y-105087326D01*
X144471800Y-105078300D01*
X149731577Y-105078300D01*
X149742760Y-105078827D01*
X149750253Y-105080502D01*
X149758179Y-105080253D01*
X149758180Y-105080253D01*
X149818330Y-105078362D01*
X149822289Y-105078300D01*
X149850200Y-105078300D01*
X149854135Y-105077803D01*
X149854200Y-105077795D01*
X149866037Y-105076862D01*
X149898295Y-105075848D01*
X149902314Y-105075722D01*
X149910233Y-105075473D01*
X149929687Y-105069821D01*
X149949044Y-105065813D01*
X149961274Y-105064268D01*
X149961275Y-105064268D01*
X149969141Y-105063274D01*
X149976512Y-105060355D01*
X149976514Y-105060355D01*
X150010256Y-105046996D01*
X150021486Y-105043151D01*
X150056327Y-105033029D01*
X150056328Y-105033029D01*
X150063937Y-105030818D01*
X150070756Y-105026785D01*
X150070761Y-105026783D01*
X150081372Y-105020507D01*
X150099120Y-105011812D01*
X150117961Y-105004352D01*
X150153731Y-104978364D01*
X150163651Y-104971848D01*
X150194879Y-104953380D01*
X150194882Y-104953378D01*
X150201706Y-104949342D01*
X150216027Y-104935021D01*
X150231061Y-104922180D01*
X150241038Y-104914931D01*
X150247451Y-104910272D01*
X150275642Y-104876195D01*
X150283632Y-104867416D01*
X150577637Y-104573411D01*
X150639949Y-104539385D01*
X150666732Y-104536506D01*
X150722625Y-104536506D01*
X150729077Y-104535134D01*
X150729082Y-104535134D01*
X150816026Y-104516653D01*
X150909426Y-104496800D01*
X150915457Y-104494115D01*
X151077860Y-104421809D01*
X151077862Y-104421808D01*
X151083890Y-104419124D01*
X151238391Y-104306872D01*
X151366178Y-104164950D01*
X151461665Y-103999562D01*
X151520680Y-103817934D01*
X151526146Y-103765934D01*
X151539952Y-103634571D01*
X151540642Y-103628006D01*
X151531148Y-103537672D01*
X151521370Y-103444641D01*
X151521370Y-103444639D01*
X151520680Y-103438078D01*
X151461665Y-103256450D01*
X151366178Y-103091062D01*
X151329452Y-103050273D01*
X151242813Y-102954051D01*
X151242812Y-102954050D01*
X151238391Y-102949140D01*
X151126435Y-102867799D01*
X151089232Y-102840769D01*
X151089231Y-102840768D01*
X151083890Y-102836888D01*
X151077862Y-102834204D01*
X151077860Y-102834203D01*
X150915457Y-102761897D01*
X150915456Y-102761897D01*
X150909426Y-102759212D01*
X150816025Y-102739359D01*
X150729082Y-102720878D01*
X150729077Y-102720878D01*
X150722625Y-102719506D01*
X150531651Y-102719506D01*
X150525199Y-102720878D01*
X150525194Y-102720878D01*
X150438251Y-102739359D01*
X150344850Y-102759212D01*
X150338820Y-102761897D01*
X150338819Y-102761897D01*
X150176416Y-102834203D01*
X150176414Y-102834204D01*
X150170386Y-102836888D01*
X150165045Y-102840768D01*
X150165044Y-102840769D01*
X150127841Y-102867799D01*
X150015885Y-102949140D01*
X150011464Y-102954050D01*
X150011463Y-102954051D01*
X149924825Y-103050273D01*
X149888098Y-103091062D01*
X149792611Y-103256450D01*
X149733596Y-103438078D01*
X149732906Y-103444639D01*
X149732906Y-103444641D01*
X149716231Y-103603298D01*
X149689218Y-103668955D01*
X149680016Y-103679224D01*
X149584843Y-103774396D01*
X149522531Y-103808421D01*
X149495748Y-103811300D01*
X139330200Y-103811300D01*
X139262079Y-103791298D01*
X139242853Y-103774957D01*
X139242580Y-103775260D01*
X139237668Y-103770837D01*
X139233253Y-103765934D01*
X139211671Y-103750254D01*
X139084094Y-103657563D01*
X139084093Y-103657562D01*
X139078752Y-103653682D01*
X139072724Y-103650998D01*
X139072722Y-103650997D01*
X138910319Y-103578691D01*
X138910318Y-103578691D01*
X138904288Y-103576006D01*
X138810887Y-103556153D01*
X138723944Y-103537672D01*
X138723939Y-103537672D01*
X138717487Y-103536300D01*
X138526513Y-103536300D01*
X138520061Y-103537672D01*
X138520056Y-103537672D01*
X138433112Y-103556153D01*
X138339712Y-103576006D01*
X138333682Y-103578691D01*
X138333681Y-103578691D01*
X138171278Y-103650997D01*
X138171276Y-103650998D01*
X138165248Y-103653682D01*
X138159907Y-103657562D01*
X138159906Y-103657563D01*
X138109843Y-103693936D01*
X138010747Y-103765934D01*
X138006326Y-103770844D01*
X138006325Y-103770845D01*
X137972492Y-103808421D01*
X137882960Y-103907856D01*
X137787473Y-104073244D01*
X137728458Y-104254872D01*
X137727768Y-104261433D01*
X137727768Y-104261435D01*
X137711603Y-104415243D01*
X137708496Y-104444800D01*
X137709186Y-104451365D01*
X137718135Y-104536506D01*
X137728458Y-104634728D01*
X137787473Y-104816356D01*
X137882960Y-104981744D01*
X137887378Y-104986651D01*
X137887379Y-104986652D01*
X137986130Y-105096326D01*
X138010747Y-105123666D01*
X138165248Y-105235918D01*
X138171276Y-105238602D01*
X138171278Y-105238603D01*
X138294344Y-105293395D01*
X138339712Y-105313594D01*
X138433112Y-105333447D01*
X138520056Y-105351928D01*
X138520061Y-105351928D01*
X138526513Y-105353300D01*
X138717487Y-105353300D01*
X138723939Y-105351928D01*
X138723944Y-105351928D01*
X138810887Y-105333447D01*
X138904288Y-105313594D01*
X138949656Y-105293395D01*
X139072722Y-105238603D01*
X139072724Y-105238602D01*
X139078752Y-105235918D01*
X139233253Y-105123666D01*
X139237668Y-105118763D01*
X139242580Y-105114340D01*
X139243705Y-105115589D01*
X139297014Y-105082749D01*
X139330200Y-105078300D01*
X141778004Y-105078300D01*
X141846125Y-105098302D01*
X141892618Y-105151958D01*
X141902722Y-105222232D01*
X141873228Y-105286812D01*
X141867100Y-105293395D01*
X141590824Y-105569672D01*
X141381045Y-105779451D01*
X141318732Y-105813476D01*
X141247917Y-105808412D01*
X141217888Y-105792292D01*
X141076494Y-105689563D01*
X141076493Y-105689562D01*
X141071152Y-105685682D01*
X141065124Y-105682998D01*
X141065122Y-105682997D01*
X140902719Y-105610691D01*
X140902718Y-105610691D01*
X140896688Y-105608006D01*
X140803288Y-105588153D01*
X140716344Y-105569672D01*
X140716339Y-105569672D01*
X140709887Y-105568300D01*
X140518913Y-105568300D01*
X140512461Y-105569672D01*
X140512456Y-105569672D01*
X140425512Y-105588153D01*
X140332112Y-105608006D01*
X140326082Y-105610691D01*
X140326081Y-105610691D01*
X140163678Y-105682997D01*
X140163676Y-105682998D01*
X140157648Y-105685682D01*
X140152307Y-105689562D01*
X140152306Y-105689563D01*
X140108535Y-105721365D01*
X140003147Y-105797934D01*
X139998732Y-105802837D01*
X139993820Y-105807260D01*
X139992695Y-105806011D01*
X139939386Y-105838851D01*
X139906200Y-105843300D01*
X134479951Y-105843300D01*
X134411830Y-105823298D01*
X134370832Y-105780300D01*
X134336806Y-105721365D01*
X134301640Y-105660456D01*
X134256832Y-105610691D01*
X134178275Y-105523445D01*
X134178274Y-105523444D01*
X134173853Y-105518534D01*
X134019352Y-105406282D01*
X134013324Y-105403598D01*
X134013322Y-105403597D01*
X133850919Y-105331291D01*
X133850918Y-105331291D01*
X133844888Y-105328606D01*
X133751487Y-105308753D01*
X133664544Y-105290272D01*
X133664539Y-105290272D01*
X133658087Y-105288900D01*
X133467113Y-105288900D01*
X133460661Y-105290272D01*
X133460656Y-105290272D01*
X133373712Y-105308753D01*
X133280312Y-105328606D01*
X133274282Y-105331291D01*
X133274281Y-105331291D01*
X133111878Y-105403597D01*
X133111876Y-105403598D01*
X133105848Y-105406282D01*
X132951347Y-105518534D01*
X132946926Y-105523444D01*
X132946925Y-105523445D01*
X132868369Y-105610691D01*
X132823560Y-105660456D01*
X132788394Y-105721365D01*
X132739524Y-105806011D01*
X132728073Y-105825844D01*
X132669058Y-106007472D01*
X132668368Y-106014033D01*
X132668368Y-106014035D01*
X132649786Y-106190835D01*
X132649096Y-106197400D01*
X122185147Y-106197400D01*
X122195337Y-95986600D01*
X132411096Y-95986600D01*
X132411786Y-95993165D01*
X132424673Y-96115774D01*
X132431058Y-96176528D01*
X132490073Y-96358156D01*
X132585560Y-96523544D01*
X132713347Y-96665466D01*
X132867848Y-96777718D01*
X132873876Y-96780402D01*
X132873878Y-96780403D01*
X133000836Y-96836928D01*
X133042312Y-96855394D01*
X133135713Y-96875247D01*
X133222656Y-96893728D01*
X133222661Y-96893728D01*
X133229113Y-96895100D01*
X133285006Y-96895100D01*
X133353127Y-96915102D01*
X133374101Y-96932005D01*
X135143395Y-98701299D01*
X135177421Y-98763611D01*
X135180300Y-98790394D01*
X135180300Y-99794033D01*
X135179773Y-99805216D01*
X135178098Y-99812709D01*
X135178347Y-99820635D01*
X135178347Y-99820636D01*
X135180238Y-99880786D01*
X135180300Y-99884745D01*
X135180300Y-99912656D01*
X135180797Y-99916590D01*
X135180797Y-99916591D01*
X135180805Y-99916656D01*
X135181738Y-99928493D01*
X135183127Y-99972689D01*
X135187938Y-99989249D01*
X135188778Y-99992139D01*
X135192787Y-100011500D01*
X135195326Y-100031597D01*
X135198245Y-100038968D01*
X135198245Y-100038970D01*
X135211604Y-100072712D01*
X135215449Y-100083942D01*
X135225571Y-100118783D01*
X135227782Y-100126393D01*
X135231815Y-100133212D01*
X135231817Y-100133217D01*
X135238093Y-100143828D01*
X135246788Y-100161576D01*
X135254248Y-100180417D01*
X135258910Y-100186833D01*
X135258910Y-100186834D01*
X135280236Y-100216187D01*
X135286752Y-100226107D01*
X135297148Y-100243685D01*
X135309258Y-100264162D01*
X135323579Y-100278483D01*
X135336419Y-100293516D01*
X135348328Y-100309907D01*
X135354434Y-100314958D01*
X135382405Y-100338098D01*
X135391184Y-100346088D01*
X135751104Y-100706008D01*
X135785130Y-100768320D01*
X135780065Y-100839135D01*
X135737518Y-100895971D01*
X135724048Y-100903882D01*
X135724401Y-100904493D01*
X135718678Y-100907797D01*
X135712648Y-100910482D01*
X135558147Y-101022734D01*
X135553726Y-101027644D01*
X135553725Y-101027645D01*
X135484860Y-101104128D01*
X135430360Y-101164656D01*
X135386366Y-101240856D01*
X135357139Y-101291479D01*
X135334873Y-101330044D01*
X135275858Y-101511672D01*
X135275168Y-101518233D01*
X135275168Y-101518235D01*
X135272177Y-101546691D01*
X135255896Y-101701600D01*
X135256586Y-101708165D01*
X135264063Y-101779300D01*
X135275858Y-101891528D01*
X135334873Y-102073156D01*
X135430360Y-102238544D01*
X135558147Y-102380466D01*
X135712648Y-102492718D01*
X135718676Y-102495402D01*
X135718678Y-102495403D01*
X135833741Y-102546632D01*
X135887112Y-102570394D01*
X135980513Y-102590247D01*
X136067456Y-102608728D01*
X136067461Y-102608728D01*
X136073913Y-102610100D01*
X136264887Y-102610100D01*
X136271339Y-102608728D01*
X136271344Y-102608728D01*
X136358287Y-102590247D01*
X136451688Y-102570394D01*
X136505059Y-102546632D01*
X136620122Y-102495403D01*
X136620124Y-102495402D01*
X136626152Y-102492718D01*
X136780653Y-102380466D01*
X136785068Y-102375563D01*
X136789980Y-102371140D01*
X136791105Y-102372389D01*
X136844414Y-102339549D01*
X136877600Y-102335100D01*
X142640919Y-102335100D01*
X142709040Y-102355102D01*
X142750038Y-102398100D01*
X142829658Y-102536006D01*
X142829661Y-102536011D01*
X142832960Y-102541724D01*
X142837378Y-102546631D01*
X142837379Y-102546632D01*
X142956325Y-102678735D01*
X142960747Y-102683646D01*
X143115248Y-102795898D01*
X143121276Y-102798582D01*
X143121278Y-102798583D01*
X143207313Y-102836888D01*
X143289712Y-102873574D01*
X143373609Y-102891407D01*
X143470056Y-102911908D01*
X143470061Y-102911908D01*
X143476513Y-102913280D01*
X143667487Y-102913280D01*
X143673939Y-102911908D01*
X143673944Y-102911908D01*
X143770391Y-102891407D01*
X143854288Y-102873574D01*
X143936687Y-102836888D01*
X144022722Y-102798583D01*
X144022724Y-102798582D01*
X144028752Y-102795898D01*
X144183253Y-102683646D01*
X144187675Y-102678735D01*
X144306621Y-102546632D01*
X144306622Y-102546631D01*
X144311040Y-102541724D01*
X144381684Y-102419365D01*
X144403223Y-102382059D01*
X144403224Y-102382058D01*
X144406527Y-102376336D01*
X144441290Y-102269347D01*
X144481364Y-102210742D01*
X144546761Y-102183105D01*
X144616717Y-102195212D01*
X144650218Y-102219189D01*
X145236076Y-102805047D01*
X145243620Y-102813337D01*
X145247733Y-102819818D01*
X145253510Y-102825243D01*
X145297400Y-102866458D01*
X145300242Y-102869213D01*
X145319963Y-102888934D01*
X145323158Y-102891412D01*
X145332180Y-102899118D01*
X145364412Y-102929386D01*
X145371361Y-102933206D01*
X145382165Y-102939146D01*
X145398689Y-102949999D01*
X145414692Y-102962413D01*
X145455276Y-102979976D01*
X145465906Y-102985183D01*
X145504673Y-103006495D01*
X145512350Y-103008466D01*
X145512355Y-103008468D01*
X145524291Y-103011532D01*
X145542999Y-103017937D01*
X145561588Y-103025981D01*
X145569413Y-103027220D01*
X145569415Y-103027221D01*
X145605252Y-103032897D01*
X145616873Y-103035304D01*
X145652022Y-103044328D01*
X145659703Y-103046300D01*
X145679964Y-103046300D01*
X145699673Y-103047851D01*
X145719676Y-103051019D01*
X145727568Y-103050273D01*
X145732795Y-103049779D01*
X145763687Y-103046859D01*
X145775544Y-103046300D01*
X146510200Y-103046300D01*
X146578321Y-103066302D01*
X146597547Y-103082643D01*
X146597820Y-103082340D01*
X146602732Y-103086763D01*
X146607147Y-103091666D01*
X146761648Y-103203918D01*
X146767676Y-103206602D01*
X146767678Y-103206603D01*
X146930081Y-103278909D01*
X146936112Y-103281594D01*
X147029512Y-103301447D01*
X147116456Y-103319928D01*
X147116461Y-103319928D01*
X147122913Y-103321300D01*
X147313887Y-103321300D01*
X147320339Y-103319928D01*
X147320344Y-103319928D01*
X147407287Y-103301447D01*
X147500688Y-103281594D01*
X147506719Y-103278909D01*
X147669122Y-103206603D01*
X147669124Y-103206602D01*
X147675152Y-103203918D01*
X147829653Y-103091666D01*
X147866252Y-103051019D01*
X147953021Y-102954652D01*
X147953022Y-102954651D01*
X147957440Y-102949744D01*
X148032453Y-102819818D01*
X148049623Y-102790079D01*
X148049624Y-102790078D01*
X148052927Y-102784356D01*
X148111942Y-102602728D01*
X148115214Y-102571603D01*
X148131214Y-102419365D01*
X148131904Y-102412800D01*
X148124205Y-102339549D01*
X148112632Y-102229435D01*
X148112632Y-102229433D01*
X148111942Y-102222872D01*
X148052927Y-102041244D01*
X147957440Y-101875856D01*
X147829653Y-101733934D01*
X147675152Y-101621682D01*
X147669124Y-101618998D01*
X147669122Y-101618997D01*
X147506719Y-101546691D01*
X147506718Y-101546691D01*
X147500688Y-101544006D01*
X147379446Y-101518235D01*
X147320344Y-101505672D01*
X147320339Y-101505672D01*
X147313887Y-101504300D01*
X147122913Y-101504300D01*
X147116461Y-101505672D01*
X147116456Y-101505672D01*
X147057354Y-101518235D01*
X146936112Y-101544006D01*
X146930082Y-101546691D01*
X146930081Y-101546691D01*
X146767678Y-101618997D01*
X146767676Y-101618998D01*
X146761648Y-101621682D01*
X146607147Y-101733934D01*
X146602732Y-101738837D01*
X146597820Y-101743260D01*
X146596695Y-101742011D01*
X146543386Y-101774851D01*
X146510200Y-101779300D01*
X146054328Y-101779300D01*
X145986207Y-101759298D01*
X145965233Y-101742395D01*
X145932601Y-101709763D01*
X145898575Y-101647451D01*
X145903640Y-101576636D01*
X145928060Y-101536358D01*
X146000368Y-101456052D01*
X146000369Y-101456051D01*
X146004787Y-101451144D01*
X146074704Y-101330044D01*
X146096970Y-101291479D01*
X146096971Y-101291478D01*
X146100274Y-101285756D01*
X146159289Y-101104128D01*
X146176654Y-100938908D01*
X146203667Y-100873251D01*
X146212869Y-100862982D01*
X146699248Y-100376604D01*
X146761560Y-100342579D01*
X146788343Y-100339700D01*
X146802206Y-100339700D01*
X146870327Y-100359702D01*
X146891301Y-100376605D01*
X148241278Y-101726583D01*
X148275304Y-101788895D01*
X148277493Y-101802506D01*
X148294858Y-101967728D01*
X148353873Y-102149356D01*
X148449360Y-102314744D01*
X148453778Y-102319651D01*
X148453779Y-102319652D01*
X148524414Y-102398100D01*
X148577147Y-102456666D01*
X148731648Y-102568918D01*
X148737676Y-102571602D01*
X148737678Y-102571603D01*
X148900081Y-102643909D01*
X148906112Y-102646594D01*
X148999512Y-102666447D01*
X149086456Y-102684928D01*
X149086461Y-102684928D01*
X149092913Y-102686300D01*
X149283887Y-102686300D01*
X149290339Y-102684928D01*
X149290344Y-102684928D01*
X149377288Y-102666447D01*
X149470688Y-102646594D01*
X149476719Y-102643909D01*
X149639122Y-102571603D01*
X149639124Y-102571602D01*
X149645152Y-102568918D01*
X149799653Y-102456666D01*
X149852386Y-102398100D01*
X149923021Y-102319652D01*
X149923022Y-102319651D01*
X149927440Y-102314744D01*
X150022927Y-102149356D01*
X150081942Y-101967728D01*
X150101904Y-101777800D01*
X150098183Y-101742395D01*
X150082632Y-101594435D01*
X150082632Y-101594433D01*
X150081942Y-101587872D01*
X150022927Y-101406244D01*
X149927440Y-101240856D01*
X149809983Y-101110406D01*
X149804075Y-101103845D01*
X149804074Y-101103844D01*
X149799653Y-101098934D01*
X149655833Y-100994442D01*
X149650494Y-100990563D01*
X149650493Y-100990562D01*
X149645152Y-100986682D01*
X149639124Y-100983998D01*
X149639122Y-100983997D01*
X149476719Y-100911691D01*
X149476718Y-100911691D01*
X149470688Y-100909006D01*
X149377288Y-100889153D01*
X149290344Y-100870672D01*
X149290339Y-100870672D01*
X149283887Y-100869300D01*
X149227994Y-100869300D01*
X149159873Y-100849298D01*
X149138899Y-100832395D01*
X147787205Y-99480700D01*
X147753179Y-99418388D01*
X147750300Y-99391605D01*
X147750300Y-97197124D01*
X147770302Y-97129003D01*
X147782658Y-97112821D01*
X147855840Y-97031544D01*
X147951327Y-96866156D01*
X148010342Y-96684528D01*
X148011938Y-96669349D01*
X148029614Y-96501165D01*
X148030304Y-96494600D01*
X148029614Y-96488035D01*
X148011032Y-96311235D01*
X148011032Y-96311233D01*
X148010342Y-96304672D01*
X147951327Y-96123044D01*
X147943829Y-96110056D01*
X147872551Y-95986600D01*
X147855840Y-95957656D01*
X147805635Y-95901897D01*
X147732475Y-95820645D01*
X147732474Y-95820644D01*
X147728053Y-95815734D01*
X147573552Y-95703482D01*
X147567524Y-95700798D01*
X147567522Y-95700797D01*
X147405119Y-95628491D01*
X147405118Y-95628491D01*
X147399088Y-95625806D01*
X147305688Y-95605953D01*
X147218744Y-95587472D01*
X147218739Y-95587472D01*
X147212287Y-95586100D01*
X147021313Y-95586100D01*
X147014861Y-95587472D01*
X147014856Y-95587472D01*
X146927912Y-95605953D01*
X146834512Y-95625806D01*
X146828482Y-95628491D01*
X146828481Y-95628491D01*
X146666078Y-95700797D01*
X146666076Y-95700798D01*
X146660048Y-95703482D01*
X146505547Y-95815734D01*
X146501126Y-95820644D01*
X146501125Y-95820645D01*
X146427966Y-95901897D01*
X146377760Y-95957656D01*
X146361049Y-95986600D01*
X146289772Y-96110056D01*
X146282273Y-96123044D01*
X146223258Y-96304672D01*
X146222568Y-96311233D01*
X146222568Y-96311235D01*
X146203986Y-96488035D01*
X146203296Y-96494600D01*
X146203986Y-96501165D01*
X146221663Y-96669349D01*
X146223258Y-96684528D01*
X146282273Y-96866156D01*
X146377760Y-97031544D01*
X146450937Y-97112815D01*
X146481653Y-97176821D01*
X146483300Y-97197124D01*
X146483300Y-98951585D01*
X146463298Y-99019706D01*
X146409642Y-99066199D01*
X146379256Y-99075357D01*
X146373858Y-99075527D01*
X146354404Y-99081179D01*
X146335047Y-99085187D01*
X146322817Y-99086732D01*
X146322816Y-99086732D01*
X146314950Y-99087726D01*
X146307579Y-99090645D01*
X146307577Y-99090645D01*
X146273835Y-99104004D01*
X146262605Y-99107849D01*
X146227764Y-99117971D01*
X146227763Y-99117971D01*
X146220154Y-99120182D01*
X146213335Y-99124215D01*
X146213330Y-99124217D01*
X146202719Y-99130493D01*
X146184971Y-99139188D01*
X146166130Y-99146648D01*
X146159714Y-99151310D01*
X146159713Y-99151310D01*
X146130360Y-99172636D01*
X146120440Y-99179152D01*
X146089212Y-99197620D01*
X146089209Y-99197622D01*
X146082385Y-99201658D01*
X146068064Y-99215979D01*
X146053031Y-99228819D01*
X146036640Y-99240728D01*
X146031590Y-99246832D01*
X146031585Y-99246837D01*
X146008454Y-99274798D01*
X146000464Y-99283579D01*
X145315246Y-99968796D01*
X145252934Y-100002821D01*
X145226151Y-100005700D01*
X145170260Y-100005700D01*
X145163808Y-100007072D01*
X145163803Y-100007072D01*
X145085436Y-100023730D01*
X144983459Y-100045406D01*
X144977429Y-100048091D01*
X144977428Y-100048091D01*
X144815025Y-100120397D01*
X144815023Y-100120398D01*
X144808995Y-100123082D01*
X144803654Y-100126962D01*
X144803653Y-100126963D01*
X144730080Y-100180417D01*
X144654494Y-100235334D01*
X144650079Y-100240237D01*
X144645167Y-100244660D01*
X144644289Y-100243685D01*
X144589868Y-100277209D01*
X144518884Y-100275853D01*
X144467590Y-100244752D01*
X144434405Y-100211567D01*
X144400379Y-100149255D01*
X144397500Y-100122472D01*
X144397500Y-100084904D01*
X144399732Y-100061295D01*
X144399790Y-100060992D01*
X144399790Y-100060988D01*
X144401275Y-100053205D01*
X144397749Y-99997160D01*
X144397500Y-99989249D01*
X144397500Y-99973255D01*
X144395494Y-99957381D01*
X144394751Y-99949513D01*
X144391723Y-99901374D01*
X144391723Y-99901373D01*
X144391225Y-99893461D01*
X144388776Y-99885923D01*
X144387290Y-99878133D01*
X144388723Y-99877860D01*
X144386946Y-99815553D01*
X144399686Y-99784589D01*
X144468223Y-99665879D01*
X144468224Y-99665878D01*
X144471527Y-99660156D01*
X144530542Y-99478528D01*
X144550504Y-99288600D01*
X144541366Y-99201658D01*
X144531232Y-99105235D01*
X144531232Y-99105233D01*
X144530542Y-99098672D01*
X144471527Y-98917044D01*
X144376040Y-98751656D01*
X144357712Y-98731300D01*
X144252675Y-98614645D01*
X144252674Y-98614644D01*
X144248253Y-98609734D01*
X144093752Y-98497482D01*
X144087724Y-98494798D01*
X144087722Y-98494797D01*
X143925319Y-98422491D01*
X143925318Y-98422491D01*
X143919288Y-98419806D01*
X143825887Y-98399953D01*
X143738944Y-98381472D01*
X143738939Y-98381472D01*
X143732487Y-98380100D01*
X143541513Y-98380100D01*
X143535061Y-98381472D01*
X143535056Y-98381472D01*
X143448113Y-98399953D01*
X143354712Y-98419806D01*
X143348682Y-98422491D01*
X143348681Y-98422491D01*
X143186278Y-98494797D01*
X143186276Y-98494798D01*
X143180248Y-98497482D01*
X143025747Y-98609734D01*
X142953825Y-98689612D01*
X142893382Y-98726850D01*
X142860191Y-98731300D01*
X141589395Y-98731300D01*
X141521274Y-98711298D01*
X141500300Y-98694395D01*
X140624405Y-97818500D01*
X140590379Y-97756188D01*
X140587500Y-97729405D01*
X140587500Y-97349524D01*
X140607502Y-97281403D01*
X140619858Y-97265221D01*
X140693040Y-97183944D01*
X140778198Y-97036447D01*
X140785223Y-97024279D01*
X140785224Y-97024278D01*
X140788527Y-97018556D01*
X140847542Y-96836928D01*
X140864250Y-96677965D01*
X140866814Y-96653565D01*
X140867504Y-96647000D01*
X140855044Y-96528452D01*
X140848232Y-96463635D01*
X140848232Y-96463633D01*
X140847542Y-96457072D01*
X140788527Y-96275444D01*
X140693040Y-96110056D01*
X140676402Y-96091577D01*
X140569675Y-95973045D01*
X140569674Y-95973044D01*
X140565253Y-95968134D01*
X140410752Y-95855882D01*
X140404724Y-95853198D01*
X140404722Y-95853197D01*
X140242319Y-95780891D01*
X140242318Y-95780891D01*
X140236288Y-95778206D01*
X140142888Y-95758353D01*
X140055944Y-95739872D01*
X140055939Y-95739872D01*
X140049487Y-95738500D01*
X139858513Y-95738500D01*
X139852061Y-95739872D01*
X139852056Y-95739872D01*
X139765113Y-95758353D01*
X139671712Y-95778206D01*
X139665682Y-95780891D01*
X139665681Y-95780891D01*
X139503278Y-95853197D01*
X139503276Y-95853198D01*
X139497248Y-95855882D01*
X139342747Y-95968134D01*
X139338326Y-95973044D01*
X139338325Y-95973045D01*
X139231599Y-96091577D01*
X139214960Y-96110056D01*
X139119473Y-96275444D01*
X139060458Y-96457072D01*
X139059768Y-96463633D01*
X139059768Y-96463635D01*
X139052956Y-96528452D01*
X139040496Y-96647000D01*
X139041186Y-96653565D01*
X139043751Y-96677965D01*
X139060458Y-96836928D01*
X139119473Y-97018556D01*
X139122776Y-97024278D01*
X139122777Y-97024279D01*
X139146416Y-97065223D01*
X139163154Y-97134219D01*
X139139933Y-97201311D01*
X139084126Y-97245198D01*
X139013451Y-97251946D01*
X138986048Y-97243330D01*
X138896119Y-97203291D01*
X138896118Y-97203291D01*
X138890088Y-97200606D01*
X138778189Y-97176821D01*
X138709744Y-97162272D01*
X138709739Y-97162272D01*
X138703287Y-97160900D01*
X138512313Y-97160900D01*
X138505861Y-97162272D01*
X138505856Y-97162272D01*
X138437411Y-97176821D01*
X138325512Y-97200606D01*
X138319482Y-97203291D01*
X138319481Y-97203291D01*
X138157078Y-97275597D01*
X138157076Y-97275598D01*
X138151048Y-97278282D01*
X137996547Y-97390534D01*
X137868760Y-97532456D01*
X137773273Y-97697844D01*
X137741307Y-97796223D01*
X137722433Y-97854312D01*
X137682359Y-97912918D01*
X137616963Y-97940555D01*
X137547006Y-97928448D01*
X137494700Y-97880442D01*
X137476600Y-97815376D01*
X137476600Y-96180672D01*
X137496602Y-96112551D01*
X137513505Y-96091577D01*
X140163405Y-93441677D01*
X140225717Y-93407651D01*
X140296532Y-93412716D01*
X140353368Y-93455263D01*
X140378179Y-93521783D01*
X140378500Y-93530772D01*
X140378500Y-94319334D01*
X140385255Y-94381516D01*
X140436385Y-94517905D01*
X140523739Y-94634461D01*
X140640295Y-94721815D01*
X140776684Y-94772945D01*
X140838866Y-94779700D01*
X142635134Y-94779700D01*
X142697316Y-94772945D01*
X142833705Y-94721815D01*
X142950261Y-94634461D01*
X143037615Y-94517905D01*
X143081798Y-94400048D01*
X143124440Y-94343284D01*
X143191001Y-94318584D01*
X143260350Y-94333792D01*
X143295017Y-94361780D01*
X143320218Y-94390873D01*
X143327580Y-94398083D01*
X143491434Y-94534116D01*
X143499881Y-94540031D01*
X143683756Y-94647479D01*
X143693042Y-94651929D01*
X143892001Y-94727903D01*
X143901899Y-94730779D01*
X144005250Y-94751806D01*
X144019299Y-94750610D01*
X144023000Y-94740265D01*
X144023000Y-93293200D01*
X144043002Y-93225079D01*
X144096658Y-93178586D01*
X144149000Y-93167200D01*
X144405000Y-93167200D01*
X144473121Y-93187202D01*
X144519614Y-93240858D01*
X144531000Y-93293200D01*
X144531000Y-94739717D01*
X144535064Y-94753559D01*
X144548478Y-94755593D01*
X144555184Y-94754734D01*
X144565262Y-94752592D01*
X144769255Y-94691391D01*
X144778842Y-94687633D01*
X144970095Y-94593939D01*
X144978945Y-94588664D01*
X145152328Y-94464992D01*
X145160200Y-94458339D01*
X145311052Y-94308012D01*
X145317730Y-94300165D01*
X145445022Y-94123019D01*
X145446279Y-94123922D01*
X145493373Y-94080562D01*
X145563311Y-94068345D01*
X145628751Y-94095878D01*
X145656579Y-94127711D01*
X145716987Y-94226288D01*
X145863250Y-94395138D01*
X146035126Y-94537832D01*
X146228000Y-94650538D01*
X146436692Y-94730230D01*
X146441760Y-94731261D01*
X146441763Y-94731262D01*
X146536862Y-94750610D01*
X146655597Y-94774767D01*
X146660772Y-94774957D01*
X146660774Y-94774957D01*
X146873673Y-94782764D01*
X146873677Y-94782764D01*
X146878837Y-94782953D01*
X146883957Y-94782297D01*
X146883959Y-94782297D01*
X147095288Y-94755225D01*
X147095289Y-94755225D01*
X147100416Y-94754568D01*
X147105366Y-94753083D01*
X147309429Y-94691861D01*
X147309434Y-94691859D01*
X147314384Y-94690374D01*
X147514994Y-94592096D01*
X147696860Y-94462373D01*
X147855096Y-94304689D01*
X147985453Y-94123277D01*
X147986776Y-94124228D01*
X148033645Y-94081057D01*
X148103580Y-94068825D01*
X148169026Y-94096344D01*
X148196875Y-94128194D01*
X148256987Y-94226288D01*
X148403250Y-94395138D01*
X148575126Y-94537832D01*
X148768000Y-94650538D01*
X148976692Y-94730230D01*
X148981760Y-94731261D01*
X148981763Y-94731262D01*
X149076862Y-94750610D01*
X149195597Y-94774767D01*
X149200772Y-94774957D01*
X149200774Y-94774957D01*
X149413673Y-94782764D01*
X149413677Y-94782764D01*
X149418837Y-94782953D01*
X149423957Y-94782297D01*
X149423959Y-94782297D01*
X149635288Y-94755225D01*
X149635289Y-94755225D01*
X149640416Y-94754568D01*
X149645366Y-94753083D01*
X149849429Y-94691861D01*
X149849434Y-94691859D01*
X149854384Y-94690374D01*
X150054994Y-94592096D01*
X150236860Y-94462373D01*
X150395096Y-94304689D01*
X150525453Y-94123277D01*
X150526776Y-94124228D01*
X150573645Y-94081057D01*
X150643580Y-94068825D01*
X150709026Y-94096344D01*
X150736875Y-94128194D01*
X150796987Y-94226288D01*
X150943250Y-94395138D01*
X151115126Y-94537832D01*
X151308000Y-94650538D01*
X151516692Y-94730230D01*
X151521760Y-94731261D01*
X151521763Y-94731262D01*
X151616862Y-94750610D01*
X151735597Y-94774767D01*
X151740772Y-94774957D01*
X151740774Y-94774957D01*
X151953673Y-94782764D01*
X151953677Y-94782764D01*
X151958837Y-94782953D01*
X151963957Y-94782297D01*
X151963959Y-94782297D01*
X152175288Y-94755225D01*
X152175289Y-94755225D01*
X152180416Y-94754568D01*
X152185366Y-94753083D01*
X152389429Y-94691861D01*
X152389434Y-94691859D01*
X152394384Y-94690374D01*
X152594994Y-94592096D01*
X152776860Y-94462373D01*
X152935096Y-94304689D01*
X153065453Y-94123277D01*
X153078995Y-94095878D01*
X153162136Y-93927653D01*
X153162137Y-93927651D01*
X153164430Y-93923011D01*
X153229370Y-93709269D01*
X153258529Y-93487790D01*
X153260156Y-93421200D01*
X153241852Y-93198561D01*
X153187431Y-92981902D01*
X153098354Y-92777040D01*
X152977014Y-92589477D01*
X152826670Y-92424251D01*
X152822619Y-92421052D01*
X152822615Y-92421048D01*
X152655414Y-92289000D01*
X152655410Y-92288998D01*
X152651359Y-92285798D01*
X152455789Y-92177838D01*
X152450920Y-92176114D01*
X152450916Y-92176112D01*
X152250087Y-92104995D01*
X152250083Y-92104994D01*
X152245212Y-92103269D01*
X152240119Y-92102362D01*
X152240116Y-92102361D01*
X152030373Y-92065000D01*
X152030367Y-92064999D01*
X152025284Y-92064094D01*
X151951452Y-92063192D01*
X151807081Y-92061428D01*
X151807079Y-92061428D01*
X151801911Y-92061365D01*
X151581091Y-92095155D01*
X151368756Y-92164557D01*
X151170607Y-92267707D01*
X151166474Y-92270810D01*
X151166471Y-92270812D01*
X151142247Y-92289000D01*
X150991965Y-92401835D01*
X150837629Y-92563338D01*
X150730201Y-92720821D01*
X150675293Y-92765821D01*
X150604768Y-92773992D01*
X150541021Y-92742738D01*
X150520324Y-92718254D01*
X150439822Y-92593817D01*
X150439820Y-92593814D01*
X150437014Y-92589477D01*
X150286670Y-92424251D01*
X150282619Y-92421052D01*
X150282615Y-92421048D01*
X150115414Y-92289000D01*
X150115410Y-92288998D01*
X150111359Y-92285798D01*
X149915789Y-92177838D01*
X149910920Y-92176114D01*
X149910916Y-92176112D01*
X149710087Y-92104995D01*
X149710083Y-92104994D01*
X149705212Y-92103269D01*
X149700119Y-92102362D01*
X149700116Y-92102361D01*
X149490373Y-92065000D01*
X149490367Y-92064999D01*
X149485284Y-92064094D01*
X149411452Y-92063192D01*
X149267081Y-92061428D01*
X149267079Y-92061428D01*
X149261911Y-92061365D01*
X149041091Y-92095155D01*
X149028532Y-92099260D01*
X148957568Y-92101410D01*
X148900294Y-92068589D01*
X148636141Y-91804436D01*
X148628601Y-91796150D01*
X148624489Y-91789671D01*
X148574837Y-91743045D01*
X148571996Y-91740291D01*
X148552259Y-91720554D01*
X148549062Y-91718074D01*
X148540040Y-91710369D01*
X148535886Y-91706468D01*
X148507810Y-91680103D01*
X148500864Y-91676284D01*
X148500861Y-91676282D01*
X148490055Y-91670341D01*
X148473536Y-91659490D01*
X148473072Y-91659130D01*
X148457530Y-91647075D01*
X148450261Y-91643930D01*
X148450257Y-91643927D01*
X148416952Y-91629515D01*
X148406302Y-91624298D01*
X148367549Y-91602994D01*
X148347926Y-91597956D01*
X148329223Y-91591552D01*
X148317909Y-91586656D01*
X148317908Y-91586656D01*
X148310634Y-91583508D01*
X148302811Y-91582269D01*
X148302801Y-91582266D01*
X148266965Y-91576590D01*
X148255345Y-91574184D01*
X148220200Y-91565161D01*
X148220199Y-91565161D01*
X148212519Y-91563189D01*
X148192265Y-91563189D01*
X148172554Y-91561638D01*
X148160375Y-91559709D01*
X148152546Y-91558469D01*
X148123275Y-91561236D01*
X148108528Y-91562630D01*
X148096670Y-91563189D01*
X140591257Y-91563189D01*
X140580074Y-91562662D01*
X140572581Y-91560987D01*
X140564655Y-91561236D01*
X140564654Y-91561236D01*
X140504491Y-91563127D01*
X140500533Y-91563189D01*
X140472633Y-91563189D01*
X140468643Y-91563693D01*
X140456809Y-91564625D01*
X140412600Y-91566015D01*
X140404984Y-91568228D01*
X140404982Y-91568228D01*
X140393141Y-91571668D01*
X140373782Y-91575677D01*
X140372472Y-91575843D01*
X140353692Y-91578215D01*
X140346326Y-91581131D01*
X140346320Y-91581133D01*
X140312587Y-91594489D01*
X140301357Y-91598334D01*
X140285317Y-91602994D01*
X140258896Y-91610670D01*
X140252073Y-91614705D01*
X140241455Y-91620984D01*
X140223702Y-91629681D01*
X140216057Y-91632708D01*
X140204872Y-91637137D01*
X140191194Y-91647075D01*
X140169101Y-91663126D01*
X140159184Y-91669640D01*
X140121127Y-91692147D01*
X140106806Y-91706468D01*
X140091773Y-91719308D01*
X140075382Y-91731217D01*
X140066706Y-91741705D01*
X140047191Y-91765294D01*
X140039201Y-91774073D01*
X136450847Y-95362426D01*
X136442561Y-95369966D01*
X136436082Y-95374078D01*
X136430657Y-95379855D01*
X136389457Y-95423729D01*
X136386702Y-95426571D01*
X136366965Y-95446308D01*
X136364485Y-95449505D01*
X136356782Y-95458525D01*
X136326514Y-95490757D01*
X136322695Y-95497703D01*
X136322693Y-95497706D01*
X136316752Y-95508512D01*
X136305901Y-95525031D01*
X136293486Y-95541037D01*
X136290341Y-95548306D01*
X136290338Y-95548310D01*
X136275926Y-95581615D01*
X136270709Y-95592265D01*
X136249405Y-95631018D01*
X136247434Y-95638693D01*
X136247434Y-95638694D01*
X136244367Y-95650640D01*
X136237963Y-95669344D01*
X136229919Y-95687933D01*
X136228680Y-95695756D01*
X136228677Y-95695766D01*
X136223001Y-95731602D01*
X136220595Y-95743222D01*
X136209600Y-95786048D01*
X136209600Y-95806302D01*
X136208049Y-95826012D01*
X136204880Y-95846021D01*
X136205626Y-95853913D01*
X136209041Y-95890039D01*
X136209600Y-95901897D01*
X136209600Y-97671505D01*
X136189598Y-97739626D01*
X136135942Y-97786119D01*
X136065668Y-97796223D01*
X136001088Y-97766729D01*
X135994505Y-97760600D01*
X134271722Y-96037817D01*
X134237696Y-95975505D01*
X134235507Y-95961892D01*
X134218832Y-95803235D01*
X134218832Y-95803233D01*
X134218142Y-95796672D01*
X134159127Y-95615044D01*
X134142975Y-95587067D01*
X134102634Y-95517195D01*
X134063640Y-95449656D01*
X133935853Y-95307734D01*
X133781352Y-95195482D01*
X133775324Y-95192798D01*
X133775322Y-95192797D01*
X133612919Y-95120491D01*
X133612918Y-95120491D01*
X133606888Y-95117806D01*
X133513488Y-95097953D01*
X133426544Y-95079472D01*
X133426539Y-95079472D01*
X133420087Y-95078100D01*
X133229113Y-95078100D01*
X133222661Y-95079472D01*
X133222656Y-95079472D01*
X133135712Y-95097953D01*
X133042312Y-95117806D01*
X133036282Y-95120491D01*
X133036281Y-95120491D01*
X132873878Y-95192797D01*
X132873876Y-95192798D01*
X132867848Y-95195482D01*
X132713347Y-95307734D01*
X132585560Y-95449656D01*
X132546566Y-95517195D01*
X132506226Y-95587067D01*
X132490073Y-95615044D01*
X132431058Y-95796672D01*
X132430368Y-95803233D01*
X132430368Y-95803235D01*
X132414654Y-95952748D01*
X132411096Y-95986600D01*
X122195337Y-95986600D01*
X122199847Y-91468041D01*
X122201593Y-91447264D01*
X122204169Y-91431950D01*
X122204169Y-91431947D01*
X122204976Y-91427152D01*
X122205129Y-91414600D01*
X122204440Y-91409788D01*
X122204439Y-91409774D01*
X122203269Y-91401604D01*
X122202227Y-91376140D01*
X122215733Y-91152845D01*
X122217567Y-91137740D01*
X122263462Y-90887299D01*
X122267103Y-90872526D01*
X122337204Y-90647564D01*
X122342854Y-90629433D01*
X122348248Y-90615211D01*
X122441311Y-90408435D01*
X122452743Y-90383033D01*
X122459813Y-90369562D01*
X122591534Y-90151670D01*
X122600177Y-90139148D01*
X122757207Y-89938714D01*
X122767297Y-89927326D01*
X122947326Y-89747297D01*
X122958714Y-89737207D01*
X123159148Y-89580177D01*
X123171670Y-89571534D01*
X123288883Y-89500676D01*
X123389563Y-89439812D01*
X123403035Y-89432742D01*
X123585727Y-89350519D01*
X123635215Y-89328246D01*
X123649433Y-89322854D01*
X123892526Y-89247103D01*
X123907299Y-89243462D01*
X124157740Y-89197567D01*
X124172844Y-89195733D01*
X124215192Y-89193171D01*
X124392509Y-89182446D01*
X124419307Y-89183708D01*
X124419453Y-89183710D01*
X124428324Y-89185091D01*
X124437225Y-89183927D01*
X124437230Y-89183927D01*
X124459703Y-89180988D01*
X124476111Y-89179924D01*
X169393928Y-89205273D01*
G37*
%TD.AperFunction*%
%TD*%
M02*
