%TF.GenerationSoftware,KiCad,Pcbnew,(6.0.4)*%
%TF.CreationDate,2022-05-29T02:27:13+01:00*%
%TF.ProjectId,16-LED Board,31362d4c-4544-4204-926f-6172642e6b69,V1.0*%
%TF.SameCoordinates,Original*%
%TF.FileFunction,Legend,Top*%
%TF.FilePolarity,Positive*%
%FSLAX46Y46*%
G04 Gerber Fmt 4.6, Leading zero omitted, Abs format (unit mm)*
G04 Created by KiCad (PCBNEW (6.0.4)) date 2022-05-29 02:27:13*
%MOMM*%
%LPD*%
G01*
G04 APERTURE LIST*
%ADD10C,0.200000*%
%ADD11C,0.150000*%
%ADD12C,0.120000*%
G04 APERTURE END LIST*
D10*
X140373895Y-118116304D02*
X139916752Y-118116304D01*
X140145323Y-118116304D02*
X140145323Y-117316304D01*
X140069133Y-117430590D01*
X139992942Y-117506780D01*
X139916752Y-117544876D01*
X141059609Y-117316304D02*
X140907228Y-117316304D01*
X140831038Y-117354400D01*
X140792942Y-117392495D01*
X140716752Y-117506780D01*
X140678657Y-117659161D01*
X140678657Y-117963923D01*
X140716752Y-118040114D01*
X140754847Y-118078209D01*
X140831038Y-118116304D01*
X140983419Y-118116304D01*
X141059609Y-118078209D01*
X141097704Y-118040114D01*
X141135800Y-117963923D01*
X141135800Y-117773447D01*
X141097704Y-117697257D01*
X141059609Y-117659161D01*
X140983419Y-117621066D01*
X140831038Y-117621066D01*
X140754847Y-117659161D01*
X140716752Y-117697257D01*
X140678657Y-117773447D01*
X142469133Y-118116304D02*
X142088180Y-118116304D01*
X142088180Y-117316304D01*
X142735800Y-117697257D02*
X143002466Y-117697257D01*
X143116752Y-118116304D02*
X142735800Y-118116304D01*
X142735800Y-117316304D01*
X143116752Y-117316304D01*
X143459609Y-118116304D02*
X143459609Y-117316304D01*
X143650085Y-117316304D01*
X143764371Y-117354400D01*
X143840561Y-117430590D01*
X143878657Y-117506780D01*
X143916752Y-117659161D01*
X143916752Y-117773447D01*
X143878657Y-117925828D01*
X143840561Y-118002019D01*
X143764371Y-118078209D01*
X143650085Y-118116304D01*
X143459609Y-118116304D01*
X144221514Y-118078209D02*
X144297704Y-118116304D01*
X144450085Y-118116304D01*
X144526276Y-118078209D01*
X144564371Y-118002019D01*
X144564371Y-117963923D01*
X144526276Y-117887733D01*
X144450085Y-117849638D01*
X144335800Y-117849638D01*
X144259609Y-117811542D01*
X144221514Y-117735352D01*
X144221514Y-117697257D01*
X144259609Y-117621066D01*
X144335800Y-117582971D01*
X144450085Y-117582971D01*
X144526276Y-117621066D01*
X145516752Y-118116304D02*
X145516752Y-117316304D01*
X145707228Y-117316304D01*
X145821514Y-117354400D01*
X145897704Y-117430590D01*
X145935800Y-117506780D01*
X145973895Y-117659161D01*
X145973895Y-117773447D01*
X145935800Y-117925828D01*
X145897704Y-118002019D01*
X145821514Y-118078209D01*
X145707228Y-118116304D01*
X145516752Y-118116304D01*
X146316752Y-118116304D02*
X146316752Y-117582971D01*
X146316752Y-117316304D02*
X146278657Y-117354400D01*
X146316752Y-117392495D01*
X146354847Y-117354400D01*
X146316752Y-117316304D01*
X146316752Y-117392495D01*
X146659609Y-118078209D02*
X146735800Y-118116304D01*
X146888180Y-118116304D01*
X146964371Y-118078209D01*
X147002466Y-118002019D01*
X147002466Y-117963923D01*
X146964371Y-117887733D01*
X146888180Y-117849638D01*
X146773895Y-117849638D01*
X146697704Y-117811542D01*
X146659609Y-117735352D01*
X146659609Y-117697257D01*
X146697704Y-117621066D01*
X146773895Y-117582971D01*
X146888180Y-117582971D01*
X146964371Y-117621066D01*
X147345323Y-117582971D02*
X147345323Y-118382971D01*
X147345323Y-117621066D02*
X147421514Y-117582971D01*
X147573895Y-117582971D01*
X147650085Y-117621066D01*
X147688180Y-117659161D01*
X147726276Y-117735352D01*
X147726276Y-117963923D01*
X147688180Y-118040114D01*
X147650085Y-118078209D01*
X147573895Y-118116304D01*
X147421514Y-118116304D01*
X147345323Y-118078209D01*
X148183419Y-118116304D02*
X148107228Y-118078209D01*
X148069133Y-118002019D01*
X148069133Y-117316304D01*
X148831038Y-118116304D02*
X148831038Y-117697257D01*
X148792942Y-117621066D01*
X148716752Y-117582971D01*
X148564371Y-117582971D01*
X148488180Y-117621066D01*
X148831038Y-118078209D02*
X148754847Y-118116304D01*
X148564371Y-118116304D01*
X148488180Y-118078209D01*
X148450085Y-118002019D01*
X148450085Y-117925828D01*
X148488180Y-117849638D01*
X148564371Y-117811542D01*
X148754847Y-117811542D01*
X148831038Y-117773447D01*
X149135800Y-117582971D02*
X149326276Y-118116304D01*
X149516752Y-117582971D02*
X149326276Y-118116304D01*
X149250085Y-118306780D01*
X149211990Y-118344876D01*
X149135800Y-118382971D01*
X150697704Y-117697257D02*
X150811990Y-117735352D01*
X150850085Y-117773447D01*
X150888180Y-117849638D01*
X150888180Y-117963923D01*
X150850085Y-118040114D01*
X150811990Y-118078209D01*
X150735800Y-118116304D01*
X150431038Y-118116304D01*
X150431038Y-117316304D01*
X150697704Y-117316304D01*
X150773895Y-117354400D01*
X150811990Y-117392495D01*
X150850085Y-117468685D01*
X150850085Y-117544876D01*
X150811990Y-117621066D01*
X150773895Y-117659161D01*
X150697704Y-117697257D01*
X150431038Y-117697257D01*
X151345323Y-118116304D02*
X151269133Y-118078209D01*
X151231038Y-118040114D01*
X151192942Y-117963923D01*
X151192942Y-117735352D01*
X151231038Y-117659161D01*
X151269133Y-117621066D01*
X151345323Y-117582971D01*
X151459609Y-117582971D01*
X151535800Y-117621066D01*
X151573895Y-117659161D01*
X151611990Y-117735352D01*
X151611990Y-117963923D01*
X151573895Y-118040114D01*
X151535800Y-118078209D01*
X151459609Y-118116304D01*
X151345323Y-118116304D01*
X152297704Y-118116304D02*
X152297704Y-117697257D01*
X152259609Y-117621066D01*
X152183419Y-117582971D01*
X152031038Y-117582971D01*
X151954847Y-117621066D01*
X152297704Y-118078209D02*
X152221514Y-118116304D01*
X152031038Y-118116304D01*
X151954847Y-118078209D01*
X151916752Y-118002019D01*
X151916752Y-117925828D01*
X151954847Y-117849638D01*
X152031038Y-117811542D01*
X152221514Y-117811542D01*
X152297704Y-117773447D01*
X152678657Y-118116304D02*
X152678657Y-117582971D01*
X152678657Y-117735352D02*
X152716752Y-117659161D01*
X152754847Y-117621066D01*
X152831038Y-117582971D01*
X152907228Y-117582971D01*
X153516752Y-118116304D02*
X153516752Y-117316304D01*
X153516752Y-118078209D02*
X153440561Y-118116304D01*
X153288180Y-118116304D01*
X153211990Y-118078209D01*
X153173895Y-118040114D01*
X153135800Y-117963923D01*
X153135800Y-117735352D01*
X153173895Y-117659161D01*
X153211990Y-117621066D01*
X153288180Y-117582971D01*
X153440561Y-117582971D01*
X153516752Y-117621066D01*
X123393352Y-117494104D02*
X123660019Y-118294104D01*
X123926685Y-117494104D01*
X124612400Y-118294104D02*
X124155257Y-118294104D01*
X124383828Y-118294104D02*
X124383828Y-117494104D01*
X124307638Y-117608390D01*
X124231447Y-117684580D01*
X124155257Y-117722676D01*
X124955257Y-118217914D02*
X124993352Y-118256009D01*
X124955257Y-118294104D01*
X124917161Y-118256009D01*
X124955257Y-118217914D01*
X124955257Y-118294104D01*
X125488590Y-117494104D02*
X125564780Y-117494104D01*
X125640971Y-117532200D01*
X125679066Y-117570295D01*
X125717161Y-117646485D01*
X125755257Y-117798866D01*
X125755257Y-117989342D01*
X125717161Y-118141723D01*
X125679066Y-118217914D01*
X125640971Y-118256009D01*
X125564780Y-118294104D01*
X125488590Y-118294104D01*
X125412400Y-118256009D01*
X125374304Y-118217914D01*
X125336209Y-118141723D01*
X125298114Y-117989342D01*
X125298114Y-117798866D01*
X125336209Y-117646485D01*
X125374304Y-117570295D01*
X125412400Y-117532200D01*
X125488590Y-117494104D01*
D11*
%TO.C,R13*%
X159935942Y-101799380D02*
X159602609Y-101323190D01*
X159364514Y-101799380D02*
X159364514Y-100799380D01*
X159745466Y-100799380D01*
X159840704Y-100847000D01*
X159888323Y-100894619D01*
X159935942Y-100989857D01*
X159935942Y-101132714D01*
X159888323Y-101227952D01*
X159840704Y-101275571D01*
X159745466Y-101323190D01*
X159364514Y-101323190D01*
X160888323Y-101799380D02*
X160316895Y-101799380D01*
X160602609Y-101799380D02*
X160602609Y-100799380D01*
X160507371Y-100942238D01*
X160412133Y-101037476D01*
X160316895Y-101085095D01*
X161221657Y-100799380D02*
X161840704Y-100799380D01*
X161507371Y-101180333D01*
X161650228Y-101180333D01*
X161745466Y-101227952D01*
X161793085Y-101275571D01*
X161840704Y-101370809D01*
X161840704Y-101608904D01*
X161793085Y-101704142D01*
X161745466Y-101751761D01*
X161650228Y-101799380D01*
X161364514Y-101799380D01*
X161269276Y-101751761D01*
X161221657Y-101704142D01*
%TO.C,D12*%
X166247914Y-105201980D02*
X166247914Y-104201980D01*
X166486009Y-104201980D01*
X166628866Y-104249600D01*
X166724104Y-104344838D01*
X166771723Y-104440076D01*
X166819342Y-104630552D01*
X166819342Y-104773409D01*
X166771723Y-104963885D01*
X166724104Y-105059123D01*
X166628866Y-105154361D01*
X166486009Y-105201980D01*
X166247914Y-105201980D01*
X167771723Y-105201980D02*
X167200295Y-105201980D01*
X167486009Y-105201980D02*
X167486009Y-104201980D01*
X167390771Y-104344838D01*
X167295533Y-104440076D01*
X167200295Y-104487695D01*
X168152676Y-104297219D02*
X168200295Y-104249600D01*
X168295533Y-104201980D01*
X168533628Y-104201980D01*
X168628866Y-104249600D01*
X168676485Y-104297219D01*
X168724104Y-104392457D01*
X168724104Y-104487695D01*
X168676485Y-104630552D01*
X168105057Y-105201980D01*
X168724104Y-105201980D01*
%TO.C,J1*%
X138859380Y-93754533D02*
X139573666Y-93754533D01*
X139716523Y-93802152D01*
X139811761Y-93897390D01*
X139859380Y-94040247D01*
X139859380Y-94135485D01*
X139859380Y-92754533D02*
X139859380Y-93325961D01*
X139859380Y-93040247D02*
X138859380Y-93040247D01*
X139002238Y-93135485D01*
X139097476Y-93230723D01*
X139145095Y-93325961D01*
%TO.C,D1*%
X125677704Y-114981980D02*
X125677704Y-113981980D01*
X125915800Y-113981980D01*
X126058657Y-114029600D01*
X126153895Y-114124838D01*
X126201514Y-114220076D01*
X126249133Y-114410552D01*
X126249133Y-114553409D01*
X126201514Y-114743885D01*
X126153895Y-114839123D01*
X126058657Y-114934361D01*
X125915800Y-114981980D01*
X125677704Y-114981980D01*
X127201514Y-114981980D02*
X126630085Y-114981980D01*
X126915800Y-114981980D02*
X126915800Y-113981980D01*
X126820561Y-114124838D01*
X126725323Y-114220076D01*
X126630085Y-114267695D01*
%TO.C,D5*%
X125626904Y-101621580D02*
X125626904Y-100621580D01*
X125865000Y-100621580D01*
X126007857Y-100669200D01*
X126103095Y-100764438D01*
X126150714Y-100859676D01*
X126198333Y-101050152D01*
X126198333Y-101193009D01*
X126150714Y-101383485D01*
X126103095Y-101478723D01*
X126007857Y-101573961D01*
X125865000Y-101621580D01*
X125626904Y-101621580D01*
X127103095Y-100621580D02*
X126626904Y-100621580D01*
X126579285Y-101097771D01*
X126626904Y-101050152D01*
X126722142Y-101002533D01*
X126960238Y-101002533D01*
X127055476Y-101050152D01*
X127103095Y-101097771D01*
X127150714Y-101193009D01*
X127150714Y-101431104D01*
X127103095Y-101526342D01*
X127055476Y-101573961D01*
X126960238Y-101621580D01*
X126722142Y-101621580D01*
X126626904Y-101573961D01*
X126579285Y-101526342D01*
%TO.C,U1*%
X140335095Y-107892180D02*
X140335095Y-108701704D01*
X140382714Y-108796942D01*
X140430333Y-108844561D01*
X140525571Y-108892180D01*
X140716047Y-108892180D01*
X140811285Y-108844561D01*
X140858904Y-108796942D01*
X140906523Y-108701704D01*
X140906523Y-107892180D01*
X141906523Y-108892180D02*
X141335095Y-108892180D01*
X141620809Y-108892180D02*
X141620809Y-107892180D01*
X141525571Y-108035038D01*
X141430333Y-108130276D01*
X141335095Y-108177895D01*
X140625580Y-105496904D02*
X140625580Y-104830238D01*
X141625580Y-105258809D01*
X140958914Y-104020714D02*
X141625580Y-104020714D01*
X140577961Y-104258809D02*
X141292247Y-104496904D01*
X141292247Y-103877857D01*
X141625580Y-103496904D02*
X140625580Y-103496904D01*
X141101771Y-103496904D02*
X141101771Y-102925476D01*
X141625580Y-102925476D02*
X140625580Y-102925476D01*
X141530342Y-101877857D02*
X141577961Y-101925476D01*
X141625580Y-102068333D01*
X141625580Y-102163571D01*
X141577961Y-102306428D01*
X141482723Y-102401666D01*
X141387485Y-102449285D01*
X141197009Y-102496904D01*
X141054152Y-102496904D01*
X140863676Y-102449285D01*
X140768438Y-102401666D01*
X140673200Y-102306428D01*
X140625580Y-102163571D01*
X140625580Y-102068333D01*
X140673200Y-101925476D01*
X140720819Y-101877857D01*
X140625580Y-100973095D02*
X140625580Y-101449285D01*
X141101771Y-101496904D01*
X141054152Y-101449285D01*
X141006533Y-101354047D01*
X141006533Y-101115952D01*
X141054152Y-101020714D01*
X141101771Y-100973095D01*
X141197009Y-100925476D01*
X141435104Y-100925476D01*
X141530342Y-100973095D01*
X141577961Y-101020714D01*
X141625580Y-101115952D01*
X141625580Y-101354047D01*
X141577961Y-101449285D01*
X141530342Y-101496904D01*
X141625580Y-100449285D02*
X141625580Y-100258809D01*
X141577961Y-100163571D01*
X141530342Y-100115952D01*
X141387485Y-100020714D01*
X141197009Y-99973095D01*
X140816057Y-99973095D01*
X140720819Y-100020714D01*
X140673200Y-100068333D01*
X140625580Y-100163571D01*
X140625580Y-100354047D01*
X140673200Y-100449285D01*
X140720819Y-100496904D01*
X140816057Y-100544523D01*
X141054152Y-100544523D01*
X141149390Y-100496904D01*
X141197009Y-100449285D01*
X141244628Y-100354047D01*
X141244628Y-100163571D01*
X141197009Y-100068333D01*
X141149390Y-100020714D01*
X141054152Y-99973095D01*
X140625580Y-99068333D02*
X140625580Y-99544523D01*
X141101771Y-99592142D01*
X141054152Y-99544523D01*
X141006533Y-99449285D01*
X141006533Y-99211190D01*
X141054152Y-99115952D01*
X141101771Y-99068333D01*
X141197009Y-99020714D01*
X141435104Y-99020714D01*
X141530342Y-99068333D01*
X141577961Y-99115952D01*
X141625580Y-99211190D01*
X141625580Y-99449285D01*
X141577961Y-99544523D01*
X141530342Y-99592142D01*
%TO.C,R7*%
X132116533Y-94787980D02*
X131783200Y-94311790D01*
X131545104Y-94787980D02*
X131545104Y-93787980D01*
X131926057Y-93787980D01*
X132021295Y-93835600D01*
X132068914Y-93883219D01*
X132116533Y-93978457D01*
X132116533Y-94121314D01*
X132068914Y-94216552D01*
X132021295Y-94264171D01*
X131926057Y-94311790D01*
X131545104Y-94311790D01*
X132449866Y-93787980D02*
X133116533Y-93787980D01*
X132687961Y-94787980D01*
%TO.C,R6*%
X132192733Y-98140780D02*
X131859400Y-97664590D01*
X131621304Y-98140780D02*
X131621304Y-97140780D01*
X132002257Y-97140780D01*
X132097495Y-97188400D01*
X132145114Y-97236019D01*
X132192733Y-97331257D01*
X132192733Y-97474114D01*
X132145114Y-97569352D01*
X132097495Y-97616971D01*
X132002257Y-97664590D01*
X131621304Y-97664590D01*
X133049876Y-97140780D02*
X132859400Y-97140780D01*
X132764161Y-97188400D01*
X132716542Y-97236019D01*
X132621304Y-97378876D01*
X132573685Y-97569352D01*
X132573685Y-97950304D01*
X132621304Y-98045542D01*
X132668923Y-98093161D01*
X132764161Y-98140780D01*
X132954638Y-98140780D01*
X133049876Y-98093161D01*
X133097495Y-98045542D01*
X133145114Y-97950304D01*
X133145114Y-97712209D01*
X133097495Y-97616971D01*
X133049876Y-97569352D01*
X132954638Y-97521733D01*
X132764161Y-97521733D01*
X132668923Y-97569352D01*
X132621304Y-97616971D01*
X132573685Y-97712209D01*
%TO.C,D10*%
X166197114Y-111882180D02*
X166197114Y-110882180D01*
X166435209Y-110882180D01*
X166578066Y-110929800D01*
X166673304Y-111025038D01*
X166720923Y-111120276D01*
X166768542Y-111310752D01*
X166768542Y-111453609D01*
X166720923Y-111644085D01*
X166673304Y-111739323D01*
X166578066Y-111834561D01*
X166435209Y-111882180D01*
X166197114Y-111882180D01*
X167720923Y-111882180D02*
X167149495Y-111882180D01*
X167435209Y-111882180D02*
X167435209Y-110882180D01*
X167339971Y-111025038D01*
X167244733Y-111120276D01*
X167149495Y-111167895D01*
X168339971Y-110882180D02*
X168435209Y-110882180D01*
X168530447Y-110929800D01*
X168578066Y-110977419D01*
X168625685Y-111072657D01*
X168673304Y-111263133D01*
X168673304Y-111501228D01*
X168625685Y-111691704D01*
X168578066Y-111786942D01*
X168530447Y-111834561D01*
X168435209Y-111882180D01*
X168339971Y-111882180D01*
X168244733Y-111834561D01*
X168197114Y-111786942D01*
X168149495Y-111691704D01*
X168101876Y-111501228D01*
X168101876Y-111263133D01*
X168149495Y-111072657D01*
X168197114Y-110977419D01*
X168244733Y-110929800D01*
X168339971Y-110882180D01*
%TO.C,R5*%
X132319733Y-101620580D02*
X131986400Y-101144390D01*
X131748304Y-101620580D02*
X131748304Y-100620580D01*
X132129257Y-100620580D01*
X132224495Y-100668200D01*
X132272114Y-100715819D01*
X132319733Y-100811057D01*
X132319733Y-100953914D01*
X132272114Y-101049152D01*
X132224495Y-101096771D01*
X132129257Y-101144390D01*
X131748304Y-101144390D01*
X133224495Y-100620580D02*
X132748304Y-100620580D01*
X132700685Y-101096771D01*
X132748304Y-101049152D01*
X132843542Y-101001533D01*
X133081638Y-101001533D01*
X133176876Y-101049152D01*
X133224495Y-101096771D01*
X133272114Y-101192009D01*
X133272114Y-101430104D01*
X133224495Y-101525342D01*
X133176876Y-101572961D01*
X133081638Y-101620580D01*
X132843542Y-101620580D01*
X132748304Y-101572961D01*
X132700685Y-101525342D01*
%TO.C,C1*%
X146416733Y-109087942D02*
X146369114Y-109135561D01*
X146226257Y-109183180D01*
X146131019Y-109183180D01*
X145988161Y-109135561D01*
X145892923Y-109040323D01*
X145845304Y-108945085D01*
X145797685Y-108754609D01*
X145797685Y-108611752D01*
X145845304Y-108421276D01*
X145892923Y-108326038D01*
X145988161Y-108230800D01*
X146131019Y-108183180D01*
X146226257Y-108183180D01*
X146369114Y-108230800D01*
X146416733Y-108278419D01*
X147369114Y-109183180D02*
X146797685Y-109183180D01*
X147083400Y-109183180D02*
X147083400Y-108183180D01*
X146988161Y-108326038D01*
X146892923Y-108421276D01*
X146797685Y-108468895D01*
%TO.C,D16*%
X166197114Y-91079580D02*
X166197114Y-90079580D01*
X166435209Y-90079580D01*
X166578066Y-90127200D01*
X166673304Y-90222438D01*
X166720923Y-90317676D01*
X166768542Y-90508152D01*
X166768542Y-90651009D01*
X166720923Y-90841485D01*
X166673304Y-90936723D01*
X166578066Y-91031961D01*
X166435209Y-91079580D01*
X166197114Y-91079580D01*
X167720923Y-91079580D02*
X167149495Y-91079580D01*
X167435209Y-91079580D02*
X167435209Y-90079580D01*
X167339971Y-90222438D01*
X167244733Y-90317676D01*
X167149495Y-90365295D01*
X168578066Y-90079580D02*
X168387590Y-90079580D01*
X168292352Y-90127200D01*
X168244733Y-90174819D01*
X168149495Y-90317676D01*
X168101876Y-90508152D01*
X168101876Y-90889104D01*
X168149495Y-90984342D01*
X168197114Y-91031961D01*
X168292352Y-91079580D01*
X168482828Y-91079580D01*
X168578066Y-91031961D01*
X168625685Y-90984342D01*
X168673304Y-90889104D01*
X168673304Y-90651009D01*
X168625685Y-90555771D01*
X168578066Y-90508152D01*
X168482828Y-90460533D01*
X168292352Y-90460533D01*
X168197114Y-90508152D01*
X168149495Y-90555771D01*
X168101876Y-90651009D01*
%TO.C,R11*%
X159859742Y-108530380D02*
X159526409Y-108054190D01*
X159288314Y-108530380D02*
X159288314Y-107530380D01*
X159669266Y-107530380D01*
X159764504Y-107578000D01*
X159812123Y-107625619D01*
X159859742Y-107720857D01*
X159859742Y-107863714D01*
X159812123Y-107958952D01*
X159764504Y-108006571D01*
X159669266Y-108054190D01*
X159288314Y-108054190D01*
X160812123Y-108530380D02*
X160240695Y-108530380D01*
X160526409Y-108530380D02*
X160526409Y-107530380D01*
X160431171Y-107673238D01*
X160335933Y-107768476D01*
X160240695Y-107816095D01*
X161764504Y-108530380D02*
X161193076Y-108530380D01*
X161478790Y-108530380D02*
X161478790Y-107530380D01*
X161383552Y-107673238D01*
X161288314Y-107768476D01*
X161193076Y-107816095D01*
%TO.C,D15*%
X166298714Y-94737180D02*
X166298714Y-93737180D01*
X166536809Y-93737180D01*
X166679666Y-93784800D01*
X166774904Y-93880038D01*
X166822523Y-93975276D01*
X166870142Y-94165752D01*
X166870142Y-94308609D01*
X166822523Y-94499085D01*
X166774904Y-94594323D01*
X166679666Y-94689561D01*
X166536809Y-94737180D01*
X166298714Y-94737180D01*
X167822523Y-94737180D02*
X167251095Y-94737180D01*
X167536809Y-94737180D02*
X167536809Y-93737180D01*
X167441571Y-93880038D01*
X167346333Y-93975276D01*
X167251095Y-94022895D01*
X168727285Y-93737180D02*
X168251095Y-93737180D01*
X168203476Y-94213371D01*
X168251095Y-94165752D01*
X168346333Y-94118133D01*
X168584428Y-94118133D01*
X168679666Y-94165752D01*
X168727285Y-94213371D01*
X168774904Y-94308609D01*
X168774904Y-94546704D01*
X168727285Y-94641942D01*
X168679666Y-94689561D01*
X168584428Y-94737180D01*
X168346333Y-94737180D01*
X168251095Y-94689561D01*
X168203476Y-94641942D01*
%TO.C,D9*%
X166673304Y-115361980D02*
X166673304Y-114361980D01*
X166911400Y-114361980D01*
X167054257Y-114409600D01*
X167149495Y-114504838D01*
X167197114Y-114600076D01*
X167244733Y-114790552D01*
X167244733Y-114933409D01*
X167197114Y-115123885D01*
X167149495Y-115219123D01*
X167054257Y-115314361D01*
X166911400Y-115361980D01*
X166673304Y-115361980D01*
X167720923Y-115361980D02*
X167911400Y-115361980D01*
X168006638Y-115314361D01*
X168054257Y-115266742D01*
X168149495Y-115123885D01*
X168197114Y-114933409D01*
X168197114Y-114552457D01*
X168149495Y-114457219D01*
X168101876Y-114409600D01*
X168006638Y-114361980D01*
X167816161Y-114361980D01*
X167720923Y-114409600D01*
X167673304Y-114457219D01*
X167625685Y-114552457D01*
X167625685Y-114790552D01*
X167673304Y-114885790D01*
X167720923Y-114933409D01*
X167816161Y-114981028D01*
X168006638Y-114981028D01*
X168101876Y-114933409D01*
X168149495Y-114885790D01*
X168197114Y-114790552D01*
%TO.C,D4*%
X125652304Y-105049580D02*
X125652304Y-104049580D01*
X125890400Y-104049580D01*
X126033257Y-104097200D01*
X126128495Y-104192438D01*
X126176114Y-104287676D01*
X126223733Y-104478152D01*
X126223733Y-104621009D01*
X126176114Y-104811485D01*
X126128495Y-104906723D01*
X126033257Y-105001961D01*
X125890400Y-105049580D01*
X125652304Y-105049580D01*
X127080876Y-104382914D02*
X127080876Y-105049580D01*
X126842780Y-104001961D02*
X126604685Y-104716247D01*
X127223733Y-104716247D01*
%TO.C,D14*%
X166247914Y-98216980D02*
X166247914Y-97216980D01*
X166486009Y-97216980D01*
X166628866Y-97264600D01*
X166724104Y-97359838D01*
X166771723Y-97455076D01*
X166819342Y-97645552D01*
X166819342Y-97788409D01*
X166771723Y-97978885D01*
X166724104Y-98074123D01*
X166628866Y-98169361D01*
X166486009Y-98216980D01*
X166247914Y-98216980D01*
X167771723Y-98216980D02*
X167200295Y-98216980D01*
X167486009Y-98216980D02*
X167486009Y-97216980D01*
X167390771Y-97359838D01*
X167295533Y-97455076D01*
X167200295Y-97502695D01*
X168628866Y-97550314D02*
X168628866Y-98216980D01*
X168390771Y-97169361D02*
X168152676Y-97883647D01*
X168771723Y-97883647D01*
%TO.C,R8*%
X132100533Y-91282780D02*
X131767200Y-90806590D01*
X131529104Y-91282780D02*
X131529104Y-90282780D01*
X131910057Y-90282780D01*
X132005295Y-90330400D01*
X132052914Y-90378019D01*
X132100533Y-90473257D01*
X132100533Y-90616114D01*
X132052914Y-90711352D01*
X132005295Y-90758971D01*
X131910057Y-90806590D01*
X131529104Y-90806590D01*
X132671961Y-90711352D02*
X132576723Y-90663733D01*
X132529104Y-90616114D01*
X132481485Y-90520876D01*
X132481485Y-90473257D01*
X132529104Y-90378019D01*
X132576723Y-90330400D01*
X132671961Y-90282780D01*
X132862438Y-90282780D01*
X132957676Y-90330400D01*
X133005295Y-90378019D01*
X133052914Y-90473257D01*
X133052914Y-90520876D01*
X133005295Y-90616114D01*
X132957676Y-90663733D01*
X132862438Y-90711352D01*
X132671961Y-90711352D01*
X132576723Y-90758971D01*
X132529104Y-90806590D01*
X132481485Y-90901828D01*
X132481485Y-91092304D01*
X132529104Y-91187542D01*
X132576723Y-91235161D01*
X132671961Y-91282780D01*
X132862438Y-91282780D01*
X132957676Y-91235161D01*
X133005295Y-91187542D01*
X133052914Y-91092304D01*
X133052914Y-90901828D01*
X133005295Y-90806590D01*
X132957676Y-90758971D01*
X132862438Y-90711352D01*
%TO.C,R2*%
X132472133Y-111678980D02*
X132138800Y-111202790D01*
X131900704Y-111678980D02*
X131900704Y-110678980D01*
X132281657Y-110678980D01*
X132376895Y-110726600D01*
X132424514Y-110774219D01*
X132472133Y-110869457D01*
X132472133Y-111012314D01*
X132424514Y-111107552D01*
X132376895Y-111155171D01*
X132281657Y-111202790D01*
X131900704Y-111202790D01*
X132853085Y-110774219D02*
X132900704Y-110726600D01*
X132995942Y-110678980D01*
X133234038Y-110678980D01*
X133329276Y-110726600D01*
X133376895Y-110774219D01*
X133424514Y-110869457D01*
X133424514Y-110964695D01*
X133376895Y-111107552D01*
X132805466Y-111678980D01*
X133424514Y-111678980D01*
%TO.C,D2*%
X125626904Y-111629180D02*
X125626904Y-110629180D01*
X125865000Y-110629180D01*
X126007857Y-110676800D01*
X126103095Y-110772038D01*
X126150714Y-110867276D01*
X126198333Y-111057752D01*
X126198333Y-111200609D01*
X126150714Y-111391085D01*
X126103095Y-111486323D01*
X126007857Y-111581561D01*
X125865000Y-111629180D01*
X125626904Y-111629180D01*
X126579285Y-110724419D02*
X126626904Y-110676800D01*
X126722142Y-110629180D01*
X126960238Y-110629180D01*
X127055476Y-110676800D01*
X127103095Y-110724419D01*
X127150714Y-110819657D01*
X127150714Y-110914895D01*
X127103095Y-111057752D01*
X126531666Y-111629180D01*
X127150714Y-111629180D01*
%TO.C,R9*%
X160462933Y-115286780D02*
X160129600Y-114810590D01*
X159891504Y-115286780D02*
X159891504Y-114286780D01*
X160272457Y-114286780D01*
X160367695Y-114334400D01*
X160415314Y-114382019D01*
X160462933Y-114477257D01*
X160462933Y-114620114D01*
X160415314Y-114715352D01*
X160367695Y-114762971D01*
X160272457Y-114810590D01*
X159891504Y-114810590D01*
X160939123Y-115286780D02*
X161129600Y-115286780D01*
X161224838Y-115239161D01*
X161272457Y-115191542D01*
X161367695Y-115048685D01*
X161415314Y-114858209D01*
X161415314Y-114477257D01*
X161367695Y-114382019D01*
X161320076Y-114334400D01*
X161224838Y-114286780D01*
X161034361Y-114286780D01*
X160939123Y-114334400D01*
X160891504Y-114382019D01*
X160843885Y-114477257D01*
X160843885Y-114715352D01*
X160891504Y-114810590D01*
X160939123Y-114858209D01*
X161034361Y-114905828D01*
X161224838Y-114905828D01*
X161320076Y-114858209D01*
X161367695Y-114810590D01*
X161415314Y-114715352D01*
%TO.C,R10*%
X159935942Y-111959380D02*
X159602609Y-111483190D01*
X159364514Y-111959380D02*
X159364514Y-110959380D01*
X159745466Y-110959380D01*
X159840704Y-111007000D01*
X159888323Y-111054619D01*
X159935942Y-111149857D01*
X159935942Y-111292714D01*
X159888323Y-111387952D01*
X159840704Y-111435571D01*
X159745466Y-111483190D01*
X159364514Y-111483190D01*
X160888323Y-111959380D02*
X160316895Y-111959380D01*
X160602609Y-111959380D02*
X160602609Y-110959380D01*
X160507371Y-111102238D01*
X160412133Y-111197476D01*
X160316895Y-111245095D01*
X161507371Y-110959380D02*
X161602609Y-110959380D01*
X161697847Y-111007000D01*
X161745466Y-111054619D01*
X161793085Y-111149857D01*
X161840704Y-111340333D01*
X161840704Y-111578428D01*
X161793085Y-111768904D01*
X161745466Y-111864142D01*
X161697847Y-111911761D01*
X161602609Y-111959380D01*
X161507371Y-111959380D01*
X161412133Y-111911761D01*
X161364514Y-111864142D01*
X161316895Y-111768904D01*
X161269276Y-111578428D01*
X161269276Y-111340333D01*
X161316895Y-111149857D01*
X161364514Y-111054619D01*
X161412133Y-111007000D01*
X161507371Y-110959380D01*
%TO.C,R1*%
X132497533Y-114980980D02*
X132164200Y-114504790D01*
X131926104Y-114980980D02*
X131926104Y-113980980D01*
X132307057Y-113980980D01*
X132402295Y-114028600D01*
X132449914Y-114076219D01*
X132497533Y-114171457D01*
X132497533Y-114314314D01*
X132449914Y-114409552D01*
X132402295Y-114457171D01*
X132307057Y-114504790D01*
X131926104Y-114504790D01*
X133449914Y-114980980D02*
X132878485Y-114980980D01*
X133164200Y-114980980D02*
X133164200Y-113980980D01*
X133068961Y-114123838D01*
X132973723Y-114219076D01*
X132878485Y-114266695D01*
%TO.C,R12*%
X159935942Y-105177580D02*
X159602609Y-104701390D01*
X159364514Y-105177580D02*
X159364514Y-104177580D01*
X159745466Y-104177580D01*
X159840704Y-104225200D01*
X159888323Y-104272819D01*
X159935942Y-104368057D01*
X159935942Y-104510914D01*
X159888323Y-104606152D01*
X159840704Y-104653771D01*
X159745466Y-104701390D01*
X159364514Y-104701390D01*
X160888323Y-105177580D02*
X160316895Y-105177580D01*
X160602609Y-105177580D02*
X160602609Y-104177580D01*
X160507371Y-104320438D01*
X160412133Y-104415676D01*
X160316895Y-104463295D01*
X161269276Y-104272819D02*
X161316895Y-104225200D01*
X161412133Y-104177580D01*
X161650228Y-104177580D01*
X161745466Y-104225200D01*
X161793085Y-104272819D01*
X161840704Y-104368057D01*
X161840704Y-104463295D01*
X161793085Y-104606152D01*
X161221657Y-105177580D01*
X161840704Y-105177580D01*
%TO.C,D7*%
X125601504Y-94788980D02*
X125601504Y-93788980D01*
X125839600Y-93788980D01*
X125982457Y-93836600D01*
X126077695Y-93931838D01*
X126125314Y-94027076D01*
X126172933Y-94217552D01*
X126172933Y-94360409D01*
X126125314Y-94550885D01*
X126077695Y-94646123D01*
X125982457Y-94741361D01*
X125839600Y-94788980D01*
X125601504Y-94788980D01*
X126506266Y-93788980D02*
X127172933Y-93788980D01*
X126744361Y-94788980D01*
%TO.C,R3*%
X132395933Y-108402380D02*
X132062600Y-107926190D01*
X131824504Y-108402380D02*
X131824504Y-107402380D01*
X132205457Y-107402380D01*
X132300695Y-107450000D01*
X132348314Y-107497619D01*
X132395933Y-107592857D01*
X132395933Y-107735714D01*
X132348314Y-107830952D01*
X132300695Y-107878571D01*
X132205457Y-107926190D01*
X131824504Y-107926190D01*
X132729266Y-107402380D02*
X133348314Y-107402380D01*
X133014980Y-107783333D01*
X133157838Y-107783333D01*
X133253076Y-107830952D01*
X133300695Y-107878571D01*
X133348314Y-107973809D01*
X133348314Y-108211904D01*
X133300695Y-108307142D01*
X133253076Y-108354761D01*
X133157838Y-108402380D01*
X132872123Y-108402380D01*
X132776885Y-108354761D01*
X132729266Y-108307142D01*
%TO.C,R16*%
X159859742Y-91232980D02*
X159526409Y-90756790D01*
X159288314Y-91232980D02*
X159288314Y-90232980D01*
X159669266Y-90232980D01*
X159764504Y-90280600D01*
X159812123Y-90328219D01*
X159859742Y-90423457D01*
X159859742Y-90566314D01*
X159812123Y-90661552D01*
X159764504Y-90709171D01*
X159669266Y-90756790D01*
X159288314Y-90756790D01*
X160812123Y-91232980D02*
X160240695Y-91232980D01*
X160526409Y-91232980D02*
X160526409Y-90232980D01*
X160431171Y-90375838D01*
X160335933Y-90471076D01*
X160240695Y-90518695D01*
X161669266Y-90232980D02*
X161478790Y-90232980D01*
X161383552Y-90280600D01*
X161335933Y-90328219D01*
X161240695Y-90471076D01*
X161193076Y-90661552D01*
X161193076Y-91042504D01*
X161240695Y-91137742D01*
X161288314Y-91185361D01*
X161383552Y-91232980D01*
X161574028Y-91232980D01*
X161669266Y-91185361D01*
X161716885Y-91137742D01*
X161764504Y-91042504D01*
X161764504Y-90804409D01*
X161716885Y-90709171D01*
X161669266Y-90661552D01*
X161574028Y-90613933D01*
X161383552Y-90613933D01*
X161288314Y-90661552D01*
X161240695Y-90709171D01*
X161193076Y-90804409D01*
%TO.C,D3*%
X125652304Y-108327180D02*
X125652304Y-107327180D01*
X125890400Y-107327180D01*
X126033257Y-107374800D01*
X126128495Y-107470038D01*
X126176114Y-107565276D01*
X126223733Y-107755752D01*
X126223733Y-107898609D01*
X126176114Y-108089085D01*
X126128495Y-108184323D01*
X126033257Y-108279561D01*
X125890400Y-108327180D01*
X125652304Y-108327180D01*
X126557066Y-107327180D02*
X127176114Y-107327180D01*
X126842780Y-107708133D01*
X126985638Y-107708133D01*
X127080876Y-107755752D01*
X127128495Y-107803371D01*
X127176114Y-107898609D01*
X127176114Y-108136704D01*
X127128495Y-108231942D01*
X127080876Y-108279561D01*
X126985638Y-108327180D01*
X126699923Y-108327180D01*
X126604685Y-108279561D01*
X126557066Y-108231942D01*
%TO.C,R14*%
X159935942Y-98294180D02*
X159602609Y-97817990D01*
X159364514Y-98294180D02*
X159364514Y-97294180D01*
X159745466Y-97294180D01*
X159840704Y-97341800D01*
X159888323Y-97389419D01*
X159935942Y-97484657D01*
X159935942Y-97627514D01*
X159888323Y-97722752D01*
X159840704Y-97770371D01*
X159745466Y-97817990D01*
X159364514Y-97817990D01*
X160888323Y-98294180D02*
X160316895Y-98294180D01*
X160602609Y-98294180D02*
X160602609Y-97294180D01*
X160507371Y-97437038D01*
X160412133Y-97532276D01*
X160316895Y-97579895D01*
X161745466Y-97627514D02*
X161745466Y-98294180D01*
X161507371Y-97246561D02*
X161269276Y-97960847D01*
X161888323Y-97960847D01*
%TO.C,D6*%
X125601504Y-98167180D02*
X125601504Y-97167180D01*
X125839600Y-97167180D01*
X125982457Y-97214800D01*
X126077695Y-97310038D01*
X126125314Y-97405276D01*
X126172933Y-97595752D01*
X126172933Y-97738609D01*
X126125314Y-97929085D01*
X126077695Y-98024323D01*
X125982457Y-98119561D01*
X125839600Y-98167180D01*
X125601504Y-98167180D01*
X127030076Y-97167180D02*
X126839600Y-97167180D01*
X126744361Y-97214800D01*
X126696742Y-97262419D01*
X126601504Y-97405276D01*
X126553885Y-97595752D01*
X126553885Y-97976704D01*
X126601504Y-98071942D01*
X126649123Y-98119561D01*
X126744361Y-98167180D01*
X126934838Y-98167180D01*
X127030076Y-98119561D01*
X127077695Y-98071942D01*
X127125314Y-97976704D01*
X127125314Y-97738609D01*
X127077695Y-97643371D01*
X127030076Y-97595752D01*
X126934838Y-97548133D01*
X126744361Y-97548133D01*
X126649123Y-97595752D01*
X126601504Y-97643371D01*
X126553885Y-97738609D01*
%TO.C,R4*%
X132370533Y-105049580D02*
X132037200Y-104573390D01*
X131799104Y-105049580D02*
X131799104Y-104049580D01*
X132180057Y-104049580D01*
X132275295Y-104097200D01*
X132322914Y-104144819D01*
X132370533Y-104240057D01*
X132370533Y-104382914D01*
X132322914Y-104478152D01*
X132275295Y-104525771D01*
X132180057Y-104573390D01*
X131799104Y-104573390D01*
X133227676Y-104382914D02*
X133227676Y-105049580D01*
X132989580Y-104001961D02*
X132751485Y-104716247D01*
X133370533Y-104716247D01*
%TO.C,D8*%
X125626904Y-91359980D02*
X125626904Y-90359980D01*
X125865000Y-90359980D01*
X126007857Y-90407600D01*
X126103095Y-90502838D01*
X126150714Y-90598076D01*
X126198333Y-90788552D01*
X126198333Y-90931409D01*
X126150714Y-91121885D01*
X126103095Y-91217123D01*
X126007857Y-91312361D01*
X125865000Y-91359980D01*
X125626904Y-91359980D01*
X126769761Y-90788552D02*
X126674523Y-90740933D01*
X126626904Y-90693314D01*
X126579285Y-90598076D01*
X126579285Y-90550457D01*
X126626904Y-90455219D01*
X126674523Y-90407600D01*
X126769761Y-90359980D01*
X126960238Y-90359980D01*
X127055476Y-90407600D01*
X127103095Y-90455219D01*
X127150714Y-90550457D01*
X127150714Y-90598076D01*
X127103095Y-90693314D01*
X127055476Y-90740933D01*
X126960238Y-90788552D01*
X126769761Y-90788552D01*
X126674523Y-90836171D01*
X126626904Y-90883790D01*
X126579285Y-90979028D01*
X126579285Y-91169504D01*
X126626904Y-91264742D01*
X126674523Y-91312361D01*
X126769761Y-91359980D01*
X126960238Y-91359980D01*
X127055476Y-91312361D01*
X127103095Y-91264742D01*
X127150714Y-91169504D01*
X127150714Y-90979028D01*
X127103095Y-90883790D01*
X127055476Y-90836171D01*
X126960238Y-90788552D01*
%TO.C,R15*%
X159885142Y-94738180D02*
X159551809Y-94261990D01*
X159313714Y-94738180D02*
X159313714Y-93738180D01*
X159694666Y-93738180D01*
X159789904Y-93785800D01*
X159837523Y-93833419D01*
X159885142Y-93928657D01*
X159885142Y-94071514D01*
X159837523Y-94166752D01*
X159789904Y-94214371D01*
X159694666Y-94261990D01*
X159313714Y-94261990D01*
X160837523Y-94738180D02*
X160266095Y-94738180D01*
X160551809Y-94738180D02*
X160551809Y-93738180D01*
X160456571Y-93881038D01*
X160361333Y-93976276D01*
X160266095Y-94023895D01*
X161742285Y-93738180D02*
X161266095Y-93738180D01*
X161218476Y-94214371D01*
X161266095Y-94166752D01*
X161361333Y-94119133D01*
X161599428Y-94119133D01*
X161694666Y-94166752D01*
X161742285Y-94214371D01*
X161789904Y-94309609D01*
X161789904Y-94547704D01*
X161742285Y-94642942D01*
X161694666Y-94690561D01*
X161599428Y-94738180D01*
X161361333Y-94738180D01*
X161266095Y-94690561D01*
X161218476Y-94642942D01*
%TO.C,D11*%
X166400314Y-108580180D02*
X166400314Y-107580180D01*
X166638409Y-107580180D01*
X166781266Y-107627800D01*
X166876504Y-107723038D01*
X166924123Y-107818276D01*
X166971742Y-108008752D01*
X166971742Y-108151609D01*
X166924123Y-108342085D01*
X166876504Y-108437323D01*
X166781266Y-108532561D01*
X166638409Y-108580180D01*
X166400314Y-108580180D01*
X167924123Y-108580180D02*
X167352695Y-108580180D01*
X167638409Y-108580180D02*
X167638409Y-107580180D01*
X167543171Y-107723038D01*
X167447933Y-107818276D01*
X167352695Y-107865895D01*
X168876504Y-108580180D02*
X168305076Y-108580180D01*
X168590790Y-108580180D02*
X168590790Y-107580180D01*
X168495552Y-107723038D01*
X168400314Y-107818276D01*
X168305076Y-107865895D01*
%TO.C,D13*%
X166273314Y-101671380D02*
X166273314Y-100671380D01*
X166511409Y-100671380D01*
X166654266Y-100719000D01*
X166749504Y-100814238D01*
X166797123Y-100909476D01*
X166844742Y-101099952D01*
X166844742Y-101242809D01*
X166797123Y-101433285D01*
X166749504Y-101528523D01*
X166654266Y-101623761D01*
X166511409Y-101671380D01*
X166273314Y-101671380D01*
X167797123Y-101671380D02*
X167225695Y-101671380D01*
X167511409Y-101671380D02*
X167511409Y-100671380D01*
X167416171Y-100814238D01*
X167320933Y-100909476D01*
X167225695Y-100957095D01*
X168130457Y-100671380D02*
X168749504Y-100671380D01*
X168416171Y-101052333D01*
X168559028Y-101052333D01*
X168654266Y-101099952D01*
X168701885Y-101147571D01*
X168749504Y-101242809D01*
X168749504Y-101480904D01*
X168701885Y-101576142D01*
X168654266Y-101623761D01*
X168559028Y-101671380D01*
X168273314Y-101671380D01*
X168178076Y-101623761D01*
X168130457Y-101576142D01*
%TO.C,U2*%
X150901495Y-107765180D02*
X150901495Y-108574704D01*
X150949114Y-108669942D01*
X150996733Y-108717561D01*
X151091971Y-108765180D01*
X151282447Y-108765180D01*
X151377685Y-108717561D01*
X151425304Y-108669942D01*
X151472923Y-108574704D01*
X151472923Y-107765180D01*
X151901495Y-107860419D02*
X151949114Y-107812800D01*
X152044352Y-107765180D01*
X152282447Y-107765180D01*
X152377685Y-107812800D01*
X152425304Y-107860419D01*
X152472923Y-107955657D01*
X152472923Y-108050895D01*
X152425304Y-108193752D01*
X151853876Y-108765180D01*
X152472923Y-108765180D01*
X151344380Y-105700104D02*
X151344380Y-105033438D01*
X152344380Y-105462009D01*
X151677714Y-104223914D02*
X152344380Y-104223914D01*
X151296761Y-104462009D02*
X152011047Y-104700104D01*
X152011047Y-104081057D01*
X152344380Y-103700104D02*
X151344380Y-103700104D01*
X151820571Y-103700104D02*
X151820571Y-103128676D01*
X152344380Y-103128676D02*
X151344380Y-103128676D01*
X152249142Y-102081057D02*
X152296761Y-102128676D01*
X152344380Y-102271533D01*
X152344380Y-102366771D01*
X152296761Y-102509628D01*
X152201523Y-102604866D01*
X152106285Y-102652485D01*
X151915809Y-102700104D01*
X151772952Y-102700104D01*
X151582476Y-102652485D01*
X151487238Y-102604866D01*
X151392000Y-102509628D01*
X151344380Y-102366771D01*
X151344380Y-102271533D01*
X151392000Y-102128676D01*
X151439619Y-102081057D01*
X151344380Y-101176295D02*
X151344380Y-101652485D01*
X151820571Y-101700104D01*
X151772952Y-101652485D01*
X151725333Y-101557247D01*
X151725333Y-101319152D01*
X151772952Y-101223914D01*
X151820571Y-101176295D01*
X151915809Y-101128676D01*
X152153904Y-101128676D01*
X152249142Y-101176295D01*
X152296761Y-101223914D01*
X152344380Y-101319152D01*
X152344380Y-101557247D01*
X152296761Y-101652485D01*
X152249142Y-101700104D01*
X152344380Y-100652485D02*
X152344380Y-100462009D01*
X152296761Y-100366771D01*
X152249142Y-100319152D01*
X152106285Y-100223914D01*
X151915809Y-100176295D01*
X151534857Y-100176295D01*
X151439619Y-100223914D01*
X151392000Y-100271533D01*
X151344380Y-100366771D01*
X151344380Y-100557247D01*
X151392000Y-100652485D01*
X151439619Y-100700104D01*
X151534857Y-100747723D01*
X151772952Y-100747723D01*
X151868190Y-100700104D01*
X151915809Y-100652485D01*
X151963428Y-100557247D01*
X151963428Y-100366771D01*
X151915809Y-100271533D01*
X151868190Y-100223914D01*
X151772952Y-100176295D01*
X151344380Y-99271533D02*
X151344380Y-99747723D01*
X151820571Y-99795342D01*
X151772952Y-99747723D01*
X151725333Y-99652485D01*
X151725333Y-99414390D01*
X151772952Y-99319152D01*
X151820571Y-99271533D01*
X151915809Y-99223914D01*
X152153904Y-99223914D01*
X152249142Y-99271533D01*
X152296761Y-99319152D01*
X152344380Y-99414390D01*
X152344380Y-99652485D01*
X152296761Y-99747723D01*
X152249142Y-99795342D01*
D12*
%TO.C,R13*%
X160351736Y-102262000D02*
X160805864Y-102262000D01*
X160351736Y-103732000D02*
X160805864Y-103732000D01*
%TO.C,D12*%
X166462200Y-107360600D02*
X169322200Y-107360600D01*
X169322200Y-107360600D02*
X169322200Y-105440600D01*
X169322200Y-105440600D02*
X166462200Y-105440600D01*
%TO.C,J1*%
X143007000Y-94751200D02*
X143007000Y-92091200D01*
X140407000Y-94751200D02*
X140407000Y-93421200D01*
X153227000Y-94751200D02*
X153227000Y-92091200D01*
X141737000Y-94751200D02*
X140407000Y-94751200D01*
X143007000Y-92091200D02*
X153227000Y-92091200D01*
X143007000Y-94751200D02*
X153227000Y-94751200D01*
%TO.C,D1*%
X124555800Y-115219600D02*
X124555800Y-117139600D01*
X124555800Y-117139600D02*
X127415800Y-117139600D01*
X127415800Y-115219600D02*
X124555800Y-115219600D01*
%TO.C,D5*%
X127365000Y-101859200D02*
X124505000Y-101859200D01*
X124505000Y-101859200D02*
X124505000Y-103779200D01*
X124505000Y-103779200D02*
X127365000Y-103779200D01*
%TO.C,U1*%
X141097000Y-97479800D02*
X143047000Y-97479800D01*
X141097000Y-107599800D02*
X144547000Y-107599800D01*
X141097000Y-107599800D02*
X139147000Y-107599800D01*
X141097000Y-97479800D02*
X139147000Y-97479800D01*
%TO.C,R7*%
X132535664Y-96721600D02*
X132081536Y-96721600D01*
X132535664Y-95251600D02*
X132081536Y-95251600D01*
%TO.C,R6*%
X132688064Y-98655200D02*
X132233936Y-98655200D01*
X132688064Y-100125200D02*
X132233936Y-100125200D01*
%TO.C,D10*%
X169271400Y-114167800D02*
X169271400Y-112247800D01*
X169271400Y-112247800D02*
X166411400Y-112247800D01*
X166411400Y-114167800D02*
X169271400Y-114167800D01*
%TO.C,R5*%
X132764264Y-103503400D02*
X132310136Y-103503400D01*
X132764264Y-102033400D02*
X132310136Y-102033400D01*
%TO.C,C1*%
X143173400Y-115426363D02*
X144237837Y-116490800D01*
X142539650Y-110839550D02*
X142539650Y-111627050D01*
X144237837Y-116490800D02*
X149993400Y-116490800D01*
X144237837Y-109670800D02*
X149993400Y-109670800D01*
X143173400Y-115426363D02*
X143173400Y-114140800D01*
X143173400Y-110735237D02*
X144237837Y-109670800D01*
X149993400Y-116490800D02*
X149993400Y-114140800D01*
X149993400Y-109670800D02*
X149993400Y-112020800D01*
X142145900Y-111233300D02*
X142933400Y-111233300D01*
X143173400Y-110735237D02*
X143173400Y-112020800D01*
%TO.C,D16*%
X169246000Y-91521400D02*
X166386000Y-91521400D01*
X166386000Y-93441400D02*
X169246000Y-93441400D01*
X169246000Y-93441400D02*
X169246000Y-91521400D01*
%TO.C,R11*%
X160275536Y-108993000D02*
X160729664Y-108993000D01*
X160275536Y-110463000D02*
X160729664Y-110463000D01*
%TO.C,D15*%
X166386000Y-96946600D02*
X169246000Y-96946600D01*
X169246000Y-96946600D02*
X169246000Y-95026600D01*
X169246000Y-95026600D02*
X166386000Y-95026600D01*
%TO.C,D9*%
X169271400Y-117546000D02*
X169271400Y-115626000D01*
X169271400Y-115626000D02*
X166411400Y-115626000D01*
X166411400Y-117546000D02*
X169271400Y-117546000D01*
%TO.C,D4*%
X124555800Y-105237400D02*
X124555800Y-107157400D01*
X124555800Y-107157400D02*
X127415800Y-107157400D01*
X127415800Y-105237400D02*
X124555800Y-105237400D01*
%TO.C,D14*%
X169296800Y-100451800D02*
X169296800Y-98531800D01*
X166436800Y-100451800D02*
X169296800Y-100451800D01*
X169296800Y-98531800D02*
X166436800Y-98531800D01*
%TO.C,R8*%
X132535664Y-93292600D02*
X132081536Y-93292600D01*
X132535664Y-91822600D02*
X132081536Y-91822600D01*
%TO.C,R2*%
X132840464Y-112066400D02*
X132386336Y-112066400D01*
X132840464Y-113536400D02*
X132386336Y-113536400D01*
%TO.C,D2*%
X127365000Y-111866800D02*
X124505000Y-111866800D01*
X124505000Y-111866800D02*
X124505000Y-113786800D01*
X124505000Y-113786800D02*
X127365000Y-113786800D01*
%TO.C,R9*%
X160402536Y-115749400D02*
X160856664Y-115749400D01*
X160402536Y-117219400D02*
X160856664Y-117219400D01*
%TO.C,R10*%
X160351736Y-112422000D02*
X160805864Y-112422000D01*
X160351736Y-113892000D02*
X160805864Y-113892000D01*
%TO.C,R1*%
X132840464Y-115444600D02*
X132386336Y-115444600D01*
X132840464Y-116914600D02*
X132386336Y-116914600D01*
%TO.C,R12*%
X160351736Y-105640200D02*
X160805864Y-105640200D01*
X160351736Y-107110200D02*
X160805864Y-107110200D01*
%TO.C,D7*%
X124479600Y-96946600D02*
X127339600Y-96946600D01*
X127339600Y-95026600D02*
X124479600Y-95026600D01*
X124479600Y-95026600D02*
X124479600Y-96946600D01*
%TO.C,R3*%
X132815064Y-110259800D02*
X132360936Y-110259800D01*
X132815064Y-108789800D02*
X132360936Y-108789800D01*
%TO.C,R16*%
X160275536Y-91695600D02*
X160729664Y-91695600D01*
X160275536Y-93165600D02*
X160729664Y-93165600D01*
%TO.C,D3*%
X127390400Y-108564800D02*
X124530400Y-108564800D01*
X124530400Y-110484800D02*
X127390400Y-110484800D01*
X124530400Y-108564800D02*
X124530400Y-110484800D01*
%TO.C,R14*%
X160351736Y-98756800D02*
X160805864Y-98756800D01*
X160351736Y-100226800D02*
X160805864Y-100226800D01*
%TO.C,D6*%
X124479600Y-98404800D02*
X124479600Y-100324800D01*
X127339600Y-98404800D02*
X124479600Y-98404800D01*
X124479600Y-100324800D02*
X127339600Y-100324800D01*
%TO.C,R4*%
X132789664Y-106932400D02*
X132335536Y-106932400D01*
X132789664Y-105462400D02*
X132335536Y-105462400D01*
%TO.C,D8*%
X124505000Y-93517600D02*
X127365000Y-93517600D01*
X127365000Y-91597600D02*
X124505000Y-91597600D01*
X124505000Y-91597600D02*
X124505000Y-93517600D01*
%TO.C,R15*%
X160300936Y-96670800D02*
X160755064Y-96670800D01*
X160300936Y-95200800D02*
X160755064Y-95200800D01*
%TO.C,D11*%
X166436800Y-110738800D02*
X169296800Y-110738800D01*
X169296800Y-108818800D02*
X166436800Y-108818800D01*
X169296800Y-110738800D02*
X169296800Y-108818800D01*
%TO.C,D13*%
X169322200Y-103957000D02*
X169322200Y-102037000D01*
X169322200Y-102037000D02*
X166462200Y-102037000D01*
X166462200Y-103957000D02*
X169322200Y-103957000D01*
%TO.C,U2*%
X151663400Y-107472800D02*
X155113400Y-107472800D01*
X151663400Y-97352800D02*
X153613400Y-97352800D01*
X151663400Y-97352800D02*
X149713400Y-97352800D01*
X151663400Y-107472800D02*
X149713400Y-107472800D01*
%TD*%
M02*
